<?xml version="1.0" standalone="no"?>
<!DOCTYPE svg PUBLIC "-//W3C//DTD SVG 20010904//EN"
 "http://www.w3.org/TR/2001/REC-SVG-20010904/DTD/svg10.dtd">
<svg version="1.0" xmlns="http://www.w3.org/2000/svg"
 width="176.000000pt" height="176.000000pt" viewBox="0 0 176.000000 176.000000"
 preserveAspectRatio="xMidYMid meet">

<g transform="translate(0.000000,176.000000) scale(0.100000,-0.100000)"
fill="#000000" stroke="none">
<path d="M128 1578 c-14 -817 180 -1254 679 -1534 l62 -35 68 39 c305 180 491
404 588 712 64 205 85 369 91 708 l5 272 -745 0 -746 0 -2 -162z m1428 -58 c5
-730 -186 -1147 -647 -1413 l-46 -27 -106 70 c-317 209 -477 482 -543 925 -8
55 -18 213 -21 353 l-6 252 684 -2 684 -3 1 -155z"/>
<path d="M260 1605 c0 -43 38 -103 88 -140 26 -19 53 -35 60 -35 17 0 15 -17
-4 -24 -25 -9 -66 -6 -106 8 -33 12 -38 12 -38 -1 0 -47 79 -125 141 -138 16
-4 29 -10 29 -15 0 -17 -76 -21 -118 -7 -39 14 -42 13 -42 -3 0 -43 114 -130
172 -130 29 0 30 -20 1 -31 -27 -11 -91 -3 -135 16 -28 11 -23 -28 8 -65 31
-36 68 -57 143 -80 53 -17 54 -18 31 -30 -27 -14 -82 -17 -122 -7 -33 9 -35
-1 -8 -35 26 -34 78 -57 147 -66 l58 -7 -23 -23 c-13 -13 -34 -22 -53 -22 -39
0 -34 -21 7 -33 41 -12 111 8 119 33 3 11 -3 40 -15 67 -28 63 -21 104 25 139
l34 26 -15 36 c-22 52 -20 105 5 148 l22 36 -41 44 c-34 37 -40 50 -40 89 0
24 9 68 20 97 40 106 26 123 -92 112 -116 -11 -142 -5 -220 43 l-38 23 0 -25z"/>
<path d="M1420 1592 l-65 -34 -106 6 c-91 6 -109 5 -123 -9 -19 -20 -20 -27
-3 -68 46 -110 42 -178 -14 -242 l-30 -33 21 -34 c25 -41 25 -69 3 -132 -14
-38 -15 -50 -6 -53 54 -18 78 -94 49 -151 -20 -38 -21 -76 -2 -91 24 -20 113
-19 133 2 16 16 16 17 -13 17 -29 0 -74 24 -74 39 0 5 23 11 51 14 69 8 136
42 155 78 l15 30 -28 -8 c-46 -12 -113 -7 -130 9 -13 14 -10 17 35 28 69 16
135 60 155 103 24 50 22 58 -13 41 -46 -23 -92 -27 -130 -12 l-35 15 55 18
c72 23 126 62 146 103 8 19 14 35 12 38 -3 2 -23 -3 -46 -12 -27 -11 -53 -14
-76 -10 -41 8 -47 21 -13 30 49 12 115 66 131 108 9 22 15 42 13 44 -2 3 -20
-3 -40 -11 -39 -16 -80 -18 -112 -6 -18 7 -15 10 21 29 22 11 56 38 76 60 33
37 64 102 56 120 -2 5 -32 -7 -68 -26z"/>
<path d="M1060 1583 c-16 -8 -44 -11 -80 -7 -30 3 -68 7 -85 9 -16 1 -41 -3
-55 -10 -14 -7 -46 -22 -72 -34 -39 -17 -48 -25 -48 -46 0 -23 2 -25 21 -14
25 13 82 4 99 -16 20 -24 7 -46 -34 -60 -51 -18 -84 -51 -92 -95 l-7 -35 25
23 c35 32 49 29 35 -7 -5 -15 -7 -36 -4 -46 6 -15 13 -11 46 26 l39 44 15 -36
c21 -51 34 -55 53 -17 28 56 44 69 68 56 11 -6 31 -20 44 -31 25 -23 37 -17
47 23 5 20 -1 35 -24 64 -34 43 -32 71 5 62 33 -9 30 4 -11 58 -30 39 -32 46
-16 46 23 0 65 33 60 46 -2 6 -14 5 -29 -3z m-150 -40 c0 -9 -8 -13 -22 -11
-31 4 -34 26 -3 26 15 0 25 -6 25 -15z"/>
<path d="M950 1229 c-11 -24 -20 -50 -20 -56 0 -7 -3 -13 -6 -13 -16 0 -64 36
-75 57 -17 31 -36 14 -50 -44 -11 -42 -13 -43 -33 -30 -11 8 -26 29 -32 48
l-11 34 -22 -35 c-40 -67 -19 -160 55 -240 13 -14 30 -43 39 -64 15 -35 15
-40 1 -54 -13 -14 -17 -12 -33 17 -34 63 -53 81 -84 81 -40 0 -48 -35 -20 -93
26 -54 27 -87 1 -120 -25 -32 -56 -43 -75 -27 -12 10 -15 9 -15 -9 0 -13 10
-26 25 -33 29 -13 71 1 116 40 25 20 30 21 35 8 3 -9 3 -27 0 -41 -8 -32 5
-32 43 1 l31 26 0 -30 c0 -38 -13 -74 -35 -95 -21 -21 -88 -22 -109 -2 -22 22
-24 19 -16 -22 15 -83 45 -103 107 -72 20 10 39 17 41 14 8 -7 -19 -63 -39
-81 -10 -9 -33 -17 -49 -16 -33 1 -32 -6 3 -46 24 -26 58 -28 92 -6 l25 16 0
-46 c0 -43 22 -116 34 -116 15 0 36 65 36 110 0 51 0 51 22 36 37 -26 73 -20
104 17 l27 32 -34 3 c-19 2 -44 13 -56 24 -26 24 -50 83 -30 75 6 -3 29 -12
49 -21 36 -15 38 -15 63 7 18 15 28 36 32 67 6 44 6 45 -14 27 -26 -22 -85
-22 -113 1 -17 14 -24 32 -28 72 l-5 54 32 -27 c18 -15 36 -27 41 -27 4 0 6
19 3 42 -7 45 -6 45 52 2 57 -43 125 -39 125 6 0 17 -3 18 -19 8 -26 -16 -68
12 -87 57 -13 31 -12 38 12 89 28 62 22 96 -19 96 -30 0 -39 -8 -67 -55 -28
-46 -41 -58 -53 -46 -16 16 4 69 42 118 52 65 81 122 81 158 -1 41 -31 104
-68 139 l-32 29 -20 -44z"/>
</g>
</svg>
