<?xml version="1.0" encoding="UTF-8"?>
<svg xmlns="http://www.w3.org/2000/svg" xmlns:xlink="http://www.w3.org/1999/xlink" width="200pt" height="200pt" viewBox="0 0 200 200" version="1.1">
<defs>
<clipPath id="clip0">
  <rect width="200" height="200"/>
</clipPath>
</defs>
<g id="surface0" clip-path="url(#clip0)">
<path style="stroke: none; fill-rule: nonzero; fill: rgb(60%,60%,60%); opacity: 1;" d="M 82.811523 87.511841 L 65.623062 100 L 100 100 "/>
<path style="fill: none; stroke-width: 0.05; stroke-linecap: round; stroke-linejoin: round; stroke: rgb(50%,0%,20%); opacity: 1;stroke-miterlimit: 10;" d="M -0 0 L -0.190983 0.587785 L 0.618034 0 " transform="matrix(27.811529,20.206259,-20.206259,27.811529,82.811529,87.511845)"/>
<path style="fill: none; stroke-width: 0.005; stroke-linecap: round; stroke-linejoin: round; stroke: rgb(50%,0%,20%); opacity: 1;stroke-miterlimit: 10;" d="M 0.618034 0 L -0 0 " transform="matrix(27.811529,20.206259,-20.206259,27.811529,82.811529,87.511845)"/>
<path style="fill: none; stroke-width: 0.01; stroke-linecap: round; stroke-linejoin: round; stroke: rgb(50%,0%,20%); opacity: 1;stroke-miterlimit: 10;" d="M 0.236068 -0 C 0.236068 0.075567 0.199892 0.146566 0.138757 0.190983 C 0.077622 0.2354 -0.001081 0.247865 -0.072949 0.224514 " transform="matrix(27.811529,20.206259,-20.206259,27.811529,82.811529,87.511845)"/>
<path style="fill: none; stroke-width: 0.03; stroke-linecap: round; stroke-linejoin: round; stroke: rgb(50%,0%,20%); opacity: 1;stroke-miterlimit: 10;" d="M 0.309017 0.224514 C 0.261604 0.159256 0.236068 0.080663 0.236068 -0 " transform="matrix(27.811529,20.206259,-20.206259,27.811529,82.811529,87.511845)"/>
<path style="stroke: none; fill-rule: nonzero; fill: rgb(90%,90%,90%); opacity: 1;" d="M 55 67.305588 L 82.811523 87.511841 L 65.623062 100 "/>
<path style="fill: none; stroke-width: 0.05; stroke-linecap: round; stroke-linejoin: round; stroke: rgb(50%,0%,20%); opacity: 1;stroke-miterlimit: 10;" d="M 0 -0 L 0.809017 0.587785 L 1 0 " transform="matrix(10.623059,32.694414,32.694414,-10.623059,55,67.305586)"/>
<path style="fill: none; stroke-width: 0.005; stroke-linecap: round; stroke-linejoin: round; stroke: rgb(50%,0%,20%); opacity: 1;stroke-miterlimit: 10;" d="M 1 0 L 0 -0 " transform="matrix(10.623059,32.694414,32.694414,-10.623059,55,67.305586)"/>
<path style="fill: none; stroke-width: 0.01; stroke-linecap: round; stroke-linejoin: round; stroke: rgb(50%,0%,20%); opacity: 1;stroke-miterlimit: 10;" d="M 0.881966 0.363271 C 0.724587 0.312136 0.618034 0.165478 0.618034 0 " transform="matrix(10.623059,32.694414,32.694414,-10.623059,55,67.305586)"/>
<path style="fill: none; stroke-width: 0.03; stroke-linecap: round; stroke-linejoin: round; stroke: rgb(50%,0%,20%); opacity: 1;stroke-miterlimit: 10;" d="M 0.618034 0 C 0.618034 0.130516 0.576715 0.257681 0.5 0.363271 " transform="matrix(10.623059,32.694414,32.694414,-10.623059,55,67.305586)"/>
<path style="stroke: none; fill-rule: nonzero; fill: rgb(90%,90%,90%); opacity: 1;" d="M 55 67.305588 L 44.376938 100 L 65.623062 100 "/>
<path style="fill: none; stroke-width: 0.05; stroke-linecap: round; stroke-linejoin: round; stroke: rgb(50%,0%,20%); opacity: 1;stroke-miterlimit: 10;" d="M 0 0 L 0.809017 0.587785 L 1 -0 " transform="matrix(10.623059,32.694414,-32.694414,10.623059,55,67.305586)"/>
<path style="fill: none; stroke-width: 0.005; stroke-linecap: round; stroke-linejoin: round; stroke: rgb(50%,0%,20%); opacity: 1;stroke-miterlimit: 10;" d="M 1 -0 L 0 0 " transform="matrix(10.623059,32.694414,-32.694414,10.623059,55,67.305586)"/>
<path style="fill: none; stroke-width: 0.01; stroke-linecap: round; stroke-linejoin: round; stroke: rgb(50%,0%,20%); opacity: 1;stroke-miterlimit: 10;" d="M 0.881966 0.363271 C 0.724587 0.312136 0.618034 0.165478 0.618034 -0 " transform="matrix(10.623059,32.694414,-32.694414,10.623059,55,67.305586)"/>
<path style="fill: none; stroke-width: 0.03; stroke-linecap: round; stroke-linejoin: round; stroke: rgb(50%,0%,20%); opacity: 1;stroke-miterlimit: 10;" d="M 0.618034 -0 C 0.618034 0.130516 0.576716 0.257682 0.5 0.363271 " transform="matrix(10.623059,32.694414,-32.694414,10.623059,55,67.305586)"/>
<path style="stroke: none; fill-rule: nonzero; fill: rgb(90%,90%,90%); opacity: 1;" d="M 27.188477 47.099335 L 37.811523 79.793747 L 55 67.305588 "/>
<path style="fill: none; stroke-width: 0.05; stroke-linecap: round; stroke-linejoin: round; stroke: rgb(50%,0%,20%); opacity: 1;stroke-miterlimit: 10;" d="M 0 0 L 0.809017 0.587785 L 1 0 " transform="matrix(27.811529,20.206259,-20.206259,27.811529,27.188471,47.099327)"/>
<path style="fill: none; stroke-width: 0.005; stroke-linecap: round; stroke-linejoin: round; stroke: rgb(50%,0%,20%); opacity: 1;stroke-miterlimit: 10;" d="M 1 0 L 0 0 " transform="matrix(27.811529,20.206259,-20.206259,27.811529,27.188471,47.099327)"/>
<path style="fill: none; stroke-width: 0.01; stroke-linecap: round; stroke-linejoin: round; stroke: rgb(50%,0%,20%); opacity: 1;stroke-miterlimit: 10;" d="M 0.881966 0.363271 C 0.724587 0.312136 0.618034 0.165478 0.618034 -0 " transform="matrix(27.811529,20.206259,-20.206259,27.811529,27.188471,47.099327)"/>
<path style="fill: none; stroke-width: 0.03; stroke-linecap: round; stroke-linejoin: round; stroke: rgb(50%,0%,20%); opacity: 1;stroke-miterlimit: 10;" d="M 0.618034 -0 C 0.618034 0.130516 0.576715 0.257682 0.5 0.363271 " transform="matrix(27.811529,20.206259,-20.206259,27.811529,27.188471,47.099327)"/>
<path style="stroke: none; fill-rule: nonzero; fill: rgb(60%,60%,60%); opacity: 1;" d="M 37.811523 79.793747 L 55 67.305588 L 44.376938 100 "/>
<path style="fill: none; stroke-width: 0.05; stroke-linecap: round; stroke-linejoin: round; stroke: rgb(50%,0%,20%); opacity: 1;stroke-miterlimit: 10;" d="M 0 -0 L -0.190983 0.587785 L 0.618034 -0 " transform="matrix(10.623059,32.694414,32.694414,-10.623059,37.811529,79.793741)"/>
<path style="fill: none; stroke-width: 0.005; stroke-linecap: round; stroke-linejoin: round; stroke: rgb(50%,0%,20%); opacity: 1;stroke-miterlimit: 10;" d="M 0.618034 -0 L 0 -0 " transform="matrix(10.623059,32.694414,32.694414,-10.623059,37.811529,79.793741)"/>
<path style="fill: none; stroke-width: 0.01; stroke-linecap: round; stroke-linejoin: round; stroke: rgb(50%,0%,20%); opacity: 1;stroke-miterlimit: 10;" d="M 0.236068 -0 C 0.236068 0.075567 0.199892 0.146566 0.138757 0.190983 C 0.077623 0.2354 -0.001081 0.247865 -0.072949 0.224514 " transform="matrix(10.623059,32.694414,32.694414,-10.623059,37.811529,79.793741)"/>
<path style="fill: none; stroke-width: 0.03; stroke-linecap: round; stroke-linejoin: round; stroke: rgb(50%,0%,20%); opacity: 1;stroke-miterlimit: 10;" d="M 0.309017 0.224514 C 0.261604 0.159256 0.236068 0.080663 0.236068 -0 " transform="matrix(10.623059,32.694414,32.694414,-10.623059,37.811529,79.793741)"/>
<path style="stroke: none; fill-rule: nonzero; fill: rgb(60%,60%,60%); opacity: 1;" d="M 82.811523 112.488159 L 65.623062 100 L 100 100 "/>
<path style="fill: none; stroke-width: 0.05; stroke-linecap: round; stroke-linejoin: round; stroke: rgb(50%,0%,20%); opacity: 1;stroke-miterlimit: 10;" d="M -0 0 L -0.190983 0.587785 L 0.618034 0 " transform="matrix(27.811529,-20.206259,-20.206259,-27.811529,82.811529,112.488155)"/>
<path style="fill: none; stroke-width: 0.005; stroke-linecap: round; stroke-linejoin: round; stroke: rgb(50%,0%,20%); opacity: 1;stroke-miterlimit: 10;" d="M 0.618034 0 L -0 0 " transform="matrix(27.811529,-20.206259,-20.206259,-27.811529,82.811529,112.488155)"/>
<path style="fill: none; stroke-width: 0.01; stroke-linecap: round; stroke-linejoin: round; stroke: rgb(50%,0%,20%); opacity: 1;stroke-miterlimit: 10;" d="M 0.236068 -0 C 0.236068 0.075567 0.199892 0.146566 0.138757 0.190983 C 0.077622 0.2354 -0.001081 0.247865 -0.072949 0.224514 " transform="matrix(27.811529,-20.206259,-20.206259,-27.811529,82.811529,112.488155)"/>
<path style="fill: none; stroke-width: 0.03; stroke-linecap: round; stroke-linejoin: round; stroke: rgb(50%,0%,20%); opacity: 1;stroke-miterlimit: 10;" d="M 0.309017 0.224514 C 0.261604 0.159256 0.236068 0.080663 0.236068 -0 " transform="matrix(27.811529,-20.206259,-20.206259,-27.811529,82.811529,112.488155)"/>
<path style="stroke: none; fill-rule: nonzero; fill: rgb(90%,90%,90%); opacity: 1;" d="M 55 132.694412 L 82.811523 112.488159 L 65.623062 100 "/>
<path style="fill: none; stroke-width: 0.05; stroke-linecap: round; stroke-linejoin: round; stroke: rgb(50%,0%,20%); opacity: 1;stroke-miterlimit: 10;" d="M 0 -0 L 0.809017 0.587785 L 1 0 " transform="matrix(10.623059,-32.694414,32.694414,10.623059,55,132.694414)"/>
<path style="fill: none; stroke-width: 0.005; stroke-linecap: round; stroke-linejoin: round; stroke: rgb(50%,0%,20%); opacity: 1;stroke-miterlimit: 10;" d="M 1 0 L 0 -0 " transform="matrix(10.623059,-32.694414,32.694414,10.623059,55,132.694414)"/>
<path style="fill: none; stroke-width: 0.01; stroke-linecap: round; stroke-linejoin: round; stroke: rgb(50%,0%,20%); opacity: 1;stroke-miterlimit: 10;" d="M 0.881966 0.363271 C 0.724587 0.312136 0.618034 0.165478 0.618034 0 " transform="matrix(10.623059,-32.694414,32.694414,10.623059,55,132.694414)"/>
<path style="fill: none; stroke-width: 0.03; stroke-linecap: round; stroke-linejoin: round; stroke: rgb(50%,0%,20%); opacity: 1;stroke-miterlimit: 10;" d="M 0.618034 0 C 0.618034 0.130516 0.576715 0.257681 0.5 0.363271 " transform="matrix(10.623059,-32.694414,32.694414,10.623059,55,132.694414)"/>
<path style="stroke: none; fill-rule: nonzero; fill: rgb(90%,90%,90%); opacity: 1;" d="M 55 132.694412 L 44.376938 100 L 65.623062 100 "/>
<path style="fill: none; stroke-width: 0.05; stroke-linecap: round; stroke-linejoin: round; stroke: rgb(50%,0%,20%); opacity: 1;stroke-miterlimit: 10;" d="M 0 0 L 0.809017 0.587785 L 1 -0 " transform="matrix(10.623059,-32.694414,-32.694414,-10.623059,55,132.694414)"/>
<path style="fill: none; stroke-width: 0.005; stroke-linecap: round; stroke-linejoin: round; stroke: rgb(50%,0%,20%); opacity: 1;stroke-miterlimit: 10;" d="M 1 -0 L 0 0 " transform="matrix(10.623059,-32.694414,-32.694414,-10.623059,55,132.694414)"/>
<path style="fill: none; stroke-width: 0.01; stroke-linecap: round; stroke-linejoin: round; stroke: rgb(50%,0%,20%); opacity: 1;stroke-miterlimit: 10;" d="M 0.881966 0.363271 C 0.724587 0.312136 0.618034 0.165478 0.618034 -0 " transform="matrix(10.623059,-32.694414,-32.694414,-10.623059,55,132.694414)"/>
<path style="fill: none; stroke-width: 0.03; stroke-linecap: round; stroke-linejoin: round; stroke: rgb(50%,0%,20%); opacity: 1;stroke-miterlimit: 10;" d="M 0.618034 -0 C 0.618034 0.130516 0.576716 0.257682 0.5 0.363271 " transform="matrix(10.623059,-32.694414,-32.694414,-10.623059,55,132.694414)"/>
<path style="stroke: none; fill-rule: nonzero; fill: rgb(90%,90%,90%); opacity: 1;" d="M 27.188477 152.900665 L 37.811523 120.206253 L 55 132.694412 "/>
<path style="fill: none; stroke-width: 0.05; stroke-linecap: round; stroke-linejoin: round; stroke: rgb(50%,0%,20%); opacity: 1;stroke-miterlimit: 10;" d="M 0 0 L 0.809017 0.587785 L 1 0 " transform="matrix(27.811529,-20.206259,-20.206259,-27.811529,27.188471,152.900673)"/>
<path style="fill: none; stroke-width: 0.005; stroke-linecap: round; stroke-linejoin: round; stroke: rgb(50%,0%,20%); opacity: 1;stroke-miterlimit: 10;" d="M 1 0 L 0 0 " transform="matrix(27.811529,-20.206259,-20.206259,-27.811529,27.188471,152.900673)"/>
<path style="fill: none; stroke-width: 0.01; stroke-linecap: round; stroke-linejoin: round; stroke: rgb(50%,0%,20%); opacity: 1;stroke-miterlimit: 10;" d="M 0.881966 0.363271 C 0.724587 0.312136 0.618034 0.165478 0.618034 -0 " transform="matrix(27.811529,-20.206259,-20.206259,-27.811529,27.188471,152.900673)"/>
<path style="fill: none; stroke-width: 0.03; stroke-linecap: round; stroke-linejoin: round; stroke: rgb(50%,0%,20%); opacity: 1;stroke-miterlimit: 10;" d="M 0.618034 -0 C 0.618034 0.130516 0.576715 0.257682 0.5 0.363271 " transform="matrix(27.811529,-20.206259,-20.206259,-27.811529,27.188471,152.900673)"/>
<path style="stroke: none; fill-rule: nonzero; fill: rgb(60%,60%,60%); opacity: 1;" d="M 37.811523 120.206253 L 55 132.694412 L 44.376938 100 "/>
<path style="fill: none; stroke-width: 0.05; stroke-linecap: round; stroke-linejoin: round; stroke: rgb(50%,0%,20%); opacity: 1;stroke-miterlimit: 10;" d="M 0 -0 L -0.190983 0.587785 L 0.618034 -0 " transform="matrix(10.623059,-32.694414,32.694414,10.623059,37.811529,120.206259)"/>
<path style="fill: none; stroke-width: 0.005; stroke-linecap: round; stroke-linejoin: round; stroke: rgb(50%,0%,20%); opacity: 1;stroke-miterlimit: 10;" d="M 0.618034 -0 L 0 -0 " transform="matrix(10.623059,-32.694414,32.694414,10.623059,37.811529,120.206259)"/>
<path style="fill: none; stroke-width: 0.01; stroke-linecap: round; stroke-linejoin: round; stroke: rgb(50%,0%,20%); opacity: 1;stroke-miterlimit: 10;" d="M 0.236068 -0 C 0.236068 0.075567 0.199892 0.146566 0.138757 0.190983 C 0.077623 0.2354 -0.001081 0.247865 -0.072949 0.224514 " transform="matrix(10.623059,-32.694414,32.694414,10.623059,37.811529,120.206259)"/>
<path style="fill: none; stroke-width: 0.03; stroke-linecap: round; stroke-linejoin: round; stroke: rgb(50%,0%,20%); opacity: 1;stroke-miterlimit: 10;" d="M 0.309017 0.224514 C 0.261604 0.159256 0.236068 0.080663 0.236068 -0 " transform="matrix(10.623059,-32.694414,32.694414,10.623059,37.811529,120.206259)"/>
<path style="stroke: none; fill-rule: nonzero; fill: rgb(60%,60%,60%); opacity: 1;" d="M 82.811523 112.488159 L 89.376938 132.694412 L 100 100 "/>
<path style="fill: none; stroke-width: 0.05; stroke-linecap: round; stroke-linejoin: round; stroke: rgb(50%,0%,20%); opacity: 1;stroke-miterlimit: 10;" d="M -0 -0 L -0.190983 0.587785 L 0.618034 -0 " transform="matrix(27.811529,-20.206259,20.206259,27.811529,82.811529,112.488155)"/>
<path style="fill: none; stroke-width: 0.005; stroke-linecap: round; stroke-linejoin: round; stroke: rgb(50%,0%,20%); opacity: 1;stroke-miterlimit: 10;" d="M 0.618034 -0 L -0 -0 " transform="matrix(27.811529,-20.206259,20.206259,27.811529,82.811529,112.488155)"/>
<path style="fill: none; stroke-width: 0.01; stroke-linecap: round; stroke-linejoin: round; stroke: rgb(50%,0%,20%); opacity: 1;stroke-miterlimit: 10;" d="M 0.236068 0 C 0.236068 0.075567 0.199892 0.146566 0.138757 0.190983 C 0.077623 0.2354 -0.001081 0.247866 -0.072949 0.224514 " transform="matrix(27.811529,-20.206259,20.206259,27.811529,82.811529,112.488155)"/>
<path style="fill: none; stroke-width: 0.03; stroke-linecap: round; stroke-linejoin: round; stroke: rgb(50%,0%,20%); opacity: 1;stroke-miterlimit: 10;" d="M 0.309017 0.224514 C 0.261604 0.159256 0.236068 0.080663 0.236068 0 " transform="matrix(27.811529,-20.206259,20.206259,27.811529,82.811529,112.488155)"/>
<path style="stroke: none; fill-rule: nonzero; fill: rgb(90%,90%,90%); opacity: 1;" d="M 55 132.694412 L 82.811523 112.488159 L 89.376938 132.694412 "/>
<path style="fill: none; stroke-width: 0.05; stroke-linecap: round; stroke-linejoin: round; stroke: rgb(50%,0%,20%); opacity: 1;stroke-miterlimit: 10;" d="M 0 0 L 0.809017 0.587785 L 1 0 " transform="matrix(34.376941,0,0,-34.376941,55,132.694414)"/>
<path style="fill: none; stroke-width: 0.005; stroke-linecap: round; stroke-linejoin: round; stroke: rgb(50%,0%,20%); opacity: 1;stroke-miterlimit: 10;" d="M 1 0 L 0 0 " transform="matrix(34.376941,0,0,-34.376941,55,132.694414)"/>
<path style="fill: none; stroke-width: 0.01; stroke-linecap: round; stroke-linejoin: round; stroke: rgb(50%,0%,20%); opacity: 1;stroke-miterlimit: 10;" d="M 0.881966 0.363271 C 0.724588 0.312136 0.618034 0.165478 0.618034 0 " transform="matrix(34.376941,0,0,-34.376941,55,132.694414)"/>
<path style="fill: none; stroke-width: 0.03; stroke-linecap: round; stroke-linejoin: round; stroke: rgb(50%,0%,20%); opacity: 1;stroke-miterlimit: 10;" d="M 0.618034 0 C 0.618034 0.130516 0.576715 0.257682 0.5 0.363271 " transform="matrix(34.376941,0,0,-34.376941,55,132.694414)"/>
<path style="stroke: none; fill-rule: nonzero; fill: rgb(90%,90%,90%); opacity: 1;" d="M 55 132.694412 L 82.811523 152.900665 L 89.376938 132.694412 "/>
<path style="fill: none; stroke-width: 0.05; stroke-linecap: round; stroke-linejoin: round; stroke: rgb(50%,0%,20%); opacity: 1;stroke-miterlimit: 10;" d="M 0 -0 L 0.809017 0.587785 L 1 -0 " transform="matrix(34.376941,0,-0,34.376941,55,132.694414)"/>
<path style="fill: none; stroke-width: 0.005; stroke-linecap: round; stroke-linejoin: round; stroke: rgb(50%,0%,20%); opacity: 1;stroke-miterlimit: 10;" d="M 1 -0 L 0 -0 " transform="matrix(34.376941,0,-0,34.376941,55,132.694414)"/>
<path style="fill: none; stroke-width: 0.01; stroke-linecap: round; stroke-linejoin: round; stroke: rgb(50%,0%,20%); opacity: 1;stroke-miterlimit: 10;" d="M 0.881966 0.363271 C 0.724588 0.312136 0.618034 0.165478 0.618034 -0 " transform="matrix(34.376941,0,-0,34.376941,55,132.694414)"/>
<path style="fill: none; stroke-width: 0.03; stroke-linecap: round; stroke-linejoin: round; stroke: rgb(50%,0%,20%); opacity: 1;stroke-miterlimit: 10;" d="M 0.618034 -0 C 0.618034 0.130516 0.576715 0.257682 0.5 0.363271 " transform="matrix(34.376941,0,-0,34.376941,55,132.694414)"/>
<path style="stroke: none; fill-rule: nonzero; fill: rgb(90%,90%,90%); opacity: 1;" d="M 27.188477 152.900665 L 61.565414 152.900665 L 55 132.694412 "/>
<path style="fill: none; stroke-width: 0.05; stroke-linecap: round; stroke-linejoin: round; stroke: rgb(50%,0%,20%); opacity: 1;stroke-miterlimit: 10;" d="M 0 -0 L 0.809017 0.587785 L 1 -0 " transform="matrix(27.811529,-20.206259,20.206259,27.811529,27.188471,152.900673)"/>
<path style="fill: none; stroke-width: 0.005; stroke-linecap: round; stroke-linejoin: round; stroke: rgb(50%,0%,20%); opacity: 1;stroke-miterlimit: 10;" d="M 1 -0 L 0 -0 " transform="matrix(27.811529,-20.206259,20.206259,27.811529,27.188471,152.900673)"/>
<path style="fill: none; stroke-width: 0.01; stroke-linecap: round; stroke-linejoin: round; stroke: rgb(50%,0%,20%); opacity: 1;stroke-miterlimit: 10;" d="M 0.881966 0.363271 C 0.724587 0.312136 0.618034 0.165478 0.618034 0 " transform="matrix(27.811529,-20.206259,20.206259,27.811529,27.188471,152.900673)"/>
<path style="fill: none; stroke-width: 0.03; stroke-linecap: round; stroke-linejoin: round; stroke: rgb(50%,0%,20%); opacity: 1;stroke-miterlimit: 10;" d="M 0.618034 0 C 0.618034 0.130516 0.576715 0.257682 0.5 0.363271 " transform="matrix(27.811529,-20.206259,20.206259,27.811529,27.188471,152.900673)"/>
<path style="stroke: none; fill-rule: nonzero; fill: rgb(60%,60%,60%); opacity: 1;" d="M 61.565414 152.900665 L 55 132.694412 L 82.811523 152.900665 "/>
<path style="fill: none; stroke-width: 0.05; stroke-linecap: round; stroke-linejoin: round; stroke: rgb(50%,0%,20%); opacity: 1;stroke-miterlimit: 10;" d="M 0 0 L -0.190983 0.587785 L 0.618034 0 " transform="matrix(34.376941,0,0,-34.376941,61.565412,152.900673)"/>
<path style="fill: none; stroke-width: 0.005; stroke-linecap: round; stroke-linejoin: round; stroke: rgb(50%,0%,20%); opacity: 1;stroke-miterlimit: 10;" d="M 0.618034 0 L 0 0 " transform="matrix(34.376941,0,0,-34.376941,61.565412,152.900673)"/>
<path style="fill: none; stroke-width: 0.01; stroke-linecap: round; stroke-linejoin: round; stroke: rgb(50%,0%,20%); opacity: 1;stroke-miterlimit: 10;" d="M 0.236068 0 C 0.236068 0.075566 0.199892 0.146566 0.138757 0.190983 C 0.077623 0.2354 -0.001081 0.247865 -0.072949 0.224514 " transform="matrix(34.376941,0,0,-34.376941,61.565412,152.900673)"/>
<path style="fill: none; stroke-width: 0.03; stroke-linecap: round; stroke-linejoin: round; stroke: rgb(50%,0%,20%); opacity: 1;stroke-miterlimit: 10;" d="M 0.309017 0.224514 C 0.261604 0.159256 0.236068 0.080663 0.236068 0 " transform="matrix(34.376941,0,0,-34.376941,61.565412,152.900673)"/>
<path style="stroke: none; fill-rule: nonzero; fill: rgb(60%,60%,60%); opacity: 1;" d="M 82.811523 87.511841 L 89.376938 67.305588 L 100 100 "/>
<path style="fill: none; stroke-width: 0.05; stroke-linecap: round; stroke-linejoin: round; stroke: rgb(50%,0%,20%); opacity: 1;stroke-miterlimit: 10;" d="M -0 -0 L -0.190983 0.587785 L 0.618034 0 " transform="matrix(27.811529,20.206259,20.206259,-27.811529,82.811529,87.511845)"/>
<path style="fill: none; stroke-width: 0.005; stroke-linecap: round; stroke-linejoin: round; stroke: rgb(50%,0%,20%); opacity: 1;stroke-miterlimit: 10;" d="M 0.618034 0 L -0 -0 " transform="matrix(27.811529,20.206259,20.206259,-27.811529,82.811529,87.511845)"/>
<path style="fill: none; stroke-width: 0.01; stroke-linecap: round; stroke-linejoin: round; stroke: rgb(50%,0%,20%); opacity: 1;stroke-miterlimit: 10;" d="M 0.236068 0 C 0.236068 0.075567 0.199892 0.146566 0.138757 0.190983 C 0.077623 0.2354 -0.001081 0.247866 -0.072949 0.224514 " transform="matrix(27.811529,20.206259,20.206259,-27.811529,82.811529,87.511845)"/>
<path style="fill: none; stroke-width: 0.03; stroke-linecap: round; stroke-linejoin: round; stroke: rgb(50%,0%,20%); opacity: 1;stroke-miterlimit: 10;" d="M 0.309017 0.224514 C 0.261604 0.159256 0.236068 0.080663 0.236068 0 " transform="matrix(27.811529,20.206259,20.206259,-27.811529,82.811529,87.511845)"/>
<path style="stroke: none; fill-rule: nonzero; fill: rgb(90%,90%,90%); opacity: 1;" d="M 55 67.305588 L 82.811523 87.511841 L 89.376938 67.305588 "/>
<path style="fill: none; stroke-width: 0.05; stroke-linecap: round; stroke-linejoin: round; stroke: rgb(50%,0%,20%); opacity: 1;stroke-miterlimit: 10;" d="M -0 0 L 0.809017 0.587785 L 1 0 " transform="matrix(34.376941,-0,0,34.376941,55,67.305586)"/>
<path style="fill: none; stroke-width: 0.005; stroke-linecap: round; stroke-linejoin: round; stroke: rgb(50%,0%,20%); opacity: 1;stroke-miterlimit: 10;" d="M 1 0 L -0 0 " transform="matrix(34.376941,-0,0,34.376941,55,67.305586)"/>
<path style="fill: none; stroke-width: 0.01; stroke-linecap: round; stroke-linejoin: round; stroke: rgb(50%,0%,20%); opacity: 1;stroke-miterlimit: 10;" d="M 0.881966 0.363271 C 0.724588 0.312136 0.618034 0.165478 0.618034 0 " transform="matrix(34.376941,-0,0,34.376941,55,67.305586)"/>
<path style="fill: none; stroke-width: 0.03; stroke-linecap: round; stroke-linejoin: round; stroke: rgb(50%,0%,20%); opacity: 1;stroke-miterlimit: 10;" d="M 0.618034 0 C 0.618034 0.130516 0.576715 0.257682 0.5 0.363271 " transform="matrix(34.376941,-0,0,34.376941,55,67.305586)"/>
<path style="stroke: none; fill-rule: nonzero; fill: rgb(90%,90%,90%); opacity: 1;" d="M 55 67.305588 L 82.811523 47.099335 L 89.376938 67.305588 "/>
<path style="fill: none; stroke-width: 0.05; stroke-linecap: round; stroke-linejoin: round; stroke: rgb(50%,0%,20%); opacity: 1;stroke-miterlimit: 10;" d="M -0 -0 L 0.809017 0.587785 L 1 -0 " transform="matrix(34.376941,-0,-0,-34.376941,55,67.305586)"/>
<path style="fill: none; stroke-width: 0.005; stroke-linecap: round; stroke-linejoin: round; stroke: rgb(50%,0%,20%); opacity: 1;stroke-miterlimit: 10;" d="M 1 -0 L -0 -0 " transform="matrix(34.376941,-0,-0,-34.376941,55,67.305586)"/>
<path style="fill: none; stroke-width: 0.01; stroke-linecap: round; stroke-linejoin: round; stroke: rgb(50%,0%,20%); opacity: 1;stroke-miterlimit: 10;" d="M 0.881966 0.363271 C 0.724588 0.312136 0.618034 0.165478 0.618034 -0 " transform="matrix(34.376941,-0,-0,-34.376941,55,67.305586)"/>
<path style="fill: none; stroke-width: 0.03; stroke-linecap: round; stroke-linejoin: round; stroke: rgb(50%,0%,20%); opacity: 1;stroke-miterlimit: 10;" d="M 0.618034 -0 C 0.618034 0.130516 0.576715 0.257682 0.5 0.363271 " transform="matrix(34.376941,-0,-0,-34.376941,55,67.305586)"/>
<path style="stroke: none; fill-rule: nonzero; fill: rgb(90%,90%,90%); opacity: 1;" d="M 27.188477 47.099335 L 61.565414 47.099335 L 55 67.305588 "/>
<path style="fill: none; stroke-width: 0.05; stroke-linecap: round; stroke-linejoin: round; stroke: rgb(50%,0%,20%); opacity: 1;stroke-miterlimit: 10;" d="M 0 -0 L 0.809017 0.587785 L 1 -0 " transform="matrix(27.811529,20.206259,20.206259,-27.811529,27.188471,47.099327)"/>
<path style="fill: none; stroke-width: 0.005; stroke-linecap: round; stroke-linejoin: round; stroke: rgb(50%,0%,20%); opacity: 1;stroke-miterlimit: 10;" d="M 1 -0 L 0 -0 " transform="matrix(27.811529,20.206259,20.206259,-27.811529,27.188471,47.099327)"/>
<path style="fill: none; stroke-width: 0.01; stroke-linecap: round; stroke-linejoin: round; stroke: rgb(50%,0%,20%); opacity: 1;stroke-miterlimit: 10;" d="M 0.881966 0.363271 C 0.724587 0.312136 0.618034 0.165478 0.618034 0 " transform="matrix(27.811529,20.206259,20.206259,-27.811529,27.188471,47.099327)"/>
<path style="fill: none; stroke-width: 0.03; stroke-linecap: round; stroke-linejoin: round; stroke: rgb(50%,0%,20%); opacity: 1;stroke-miterlimit: 10;" d="M 0.618034 0 C 0.618034 0.130516 0.576715 0.257682 0.5 0.363271 " transform="matrix(27.811529,20.206259,20.206259,-27.811529,27.188471,47.099327)"/>
<path style="stroke: none; fill-rule: nonzero; fill: rgb(60%,60%,60%); opacity: 1;" d="M 61.565414 47.099335 L 55 67.305588 L 82.811523 47.099335 "/>
<path style="fill: none; stroke-width: 0.05; stroke-linecap: round; stroke-linejoin: round; stroke: rgb(50%,0%,20%); opacity: 1;stroke-miterlimit: 10;" d="M 0 0 L -0.190983 0.587785 L 0.618034 0 " transform="matrix(34.376941,-0,0,34.376941,61.565412,47.099327)"/>
<path style="fill: none; stroke-width: 0.005; stroke-linecap: round; stroke-linejoin: round; stroke: rgb(50%,0%,20%); opacity: 1;stroke-miterlimit: 10;" d="M 0.618034 0 L 0 0 " transform="matrix(34.376941,-0,0,34.376941,61.565412,47.099327)"/>
<path style="fill: none; stroke-width: 0.01; stroke-linecap: round; stroke-linejoin: round; stroke: rgb(50%,0%,20%); opacity: 1;stroke-miterlimit: 10;" d="M 0.236068 0 C 0.236068 0.075566 0.199892 0.146566 0.138757 0.190983 C 0.077623 0.2354 -0.001081 0.247865 -0.072949 0.224514 " transform="matrix(34.376941,-0,0,34.376941,61.565412,47.099327)"/>
<path style="fill: none; stroke-width: 0.03; stroke-linecap: round; stroke-linejoin: round; stroke: rgb(50%,0%,20%); opacity: 1;stroke-miterlimit: 10;" d="M 0.309017 0.224514 C 0.261604 0.159256 0.236068 0.080663 0.236068 0 " transform="matrix(34.376941,-0,0,34.376941,61.565412,47.099327)"/>
<path style="stroke: none; fill-rule: nonzero; fill: rgb(60%,60%,60%); opacity: 1;" d="M 106.565414 120.206253 L 127.811523 120.206253 L 100 100 "/>
<path style="fill: none; stroke-width: 0.05; stroke-linecap: round; stroke-linejoin: round; stroke: rgb(50%,0%,20%); opacity: 1;stroke-miterlimit: 10;" d="M 0 0 L -0.190983 0.587785 L 0.618034 -0 " transform="matrix(-10.623059,-32.694414,32.694414,-10.623059,106.565412,120.206259)"/>
<path style="fill: none; stroke-width: 0.005; stroke-linecap: round; stroke-linejoin: round; stroke: rgb(50%,0%,20%); opacity: 1;stroke-miterlimit: 10;" d="M 0.618034 -0 L 0 0 " transform="matrix(-10.623059,-32.694414,32.694414,-10.623059,106.565412,120.206259)"/>
<path style="fill: none; stroke-width: 0.01; stroke-linecap: round; stroke-linejoin: round; stroke: rgb(50%,0%,20%); opacity: 1;stroke-miterlimit: 10;" d="M 0.236068 -0 C 0.236068 0.075566 0.199892 0.146566 0.138757 0.190983 C 0.077622 0.2354 -0.001081 0.247865 -0.072949 0.224514 " transform="matrix(-10.623059,-32.694414,32.694414,-10.623059,106.565412,120.206259)"/>
<path style="fill: none; stroke-width: 0.03; stroke-linecap: round; stroke-linejoin: round; stroke: rgb(50%,0%,20%); opacity: 1;stroke-miterlimit: 10;" d="M 0.309017 0.224514 C 0.261604 0.159256 0.236068 0.080663 0.236068 -0 " transform="matrix(-10.623059,-32.694414,32.694414,-10.623059,106.565412,120.206259)"/>
<path style="stroke: none; fill-rule: nonzero; fill: rgb(90%,90%,90%); opacity: 1;" d="M 117.188477 152.900665 L 106.565414 120.206253 L 127.811523 120.206253 "/>
<path style="fill: none; stroke-width: 0.05; stroke-linecap: round; stroke-linejoin: round; stroke: rgb(50%,0%,20%); opacity: 1;stroke-miterlimit: 10;" d="M 0 -0 L 0.809017 0.587785 L 1 0 " transform="matrix(10.623059,-32.694414,-32.694414,-10.623059,117.188471,152.900673)"/>
<path style="fill: none; stroke-width: 0.005; stroke-linecap: round; stroke-linejoin: round; stroke: rgb(50%,0%,20%); opacity: 1;stroke-miterlimit: 10;" d="M 1 0 L 0 -0 " transform="matrix(10.623059,-32.694414,-32.694414,-10.623059,117.188471,152.900673)"/>
<path style="fill: none; stroke-width: 0.01; stroke-linecap: round; stroke-linejoin: round; stroke: rgb(50%,0%,20%); opacity: 1;stroke-miterlimit: 10;" d="M 0.881966 0.363271 C 0.724587 0.312136 0.618034 0.165478 0.618034 0 " transform="matrix(10.623059,-32.694414,-32.694414,-10.623059,117.188471,152.900673)"/>
<path style="fill: none; stroke-width: 0.03; stroke-linecap: round; stroke-linejoin: round; stroke: rgb(50%,0%,20%); opacity: 1;stroke-miterlimit: 10;" d="M 0.618034 0 C 0.618034 0.130516 0.576715 0.257682 0.5 0.363271 " transform="matrix(10.623059,-32.694414,-32.694414,-10.623059,117.188471,152.900673)"/>
<path style="stroke: none; fill-rule: nonzero; fill: rgb(90%,90%,90%); opacity: 1;" d="M 117.188477 152.900665 L 145 132.694412 L 127.811523 120.206253 "/>
<path style="fill: none; stroke-width: 0.05; stroke-linecap: round; stroke-linejoin: round; stroke: rgb(50%,0%,20%); opacity: 1;stroke-miterlimit: 10;" d="M 0 0 L 0.809017 0.587785 L 1 -0 " transform="matrix(10.623059,-32.694414,32.694414,10.623059,117.188471,152.900673)"/>
<path style="fill: none; stroke-width: 0.005; stroke-linecap: round; stroke-linejoin: round; stroke: rgb(50%,0%,20%); opacity: 1;stroke-miterlimit: 10;" d="M 1 -0 L 0 0 " transform="matrix(10.623059,-32.694414,32.694414,10.623059,117.188471,152.900673)"/>
<path style="fill: none; stroke-width: 0.01; stroke-linecap: round; stroke-linejoin: round; stroke: rgb(50%,0%,20%); opacity: 1;stroke-miterlimit: 10;" d="M 0.881966 0.363271 C 0.724587 0.312136 0.618034 0.165478 0.618034 -0 " transform="matrix(10.623059,-32.694414,32.694414,10.623059,117.188471,152.900673)"/>
<path style="fill: none; stroke-width: 0.03; stroke-linecap: round; stroke-linejoin: round; stroke: rgb(50%,0%,20%); opacity: 1;stroke-miterlimit: 10;" d="M 0.618034 -0 C 0.618034 0.130516 0.576715 0.257682 0.5 0.363271 " transform="matrix(10.623059,-32.694414,32.694414,10.623059,117.188471,152.900673)"/>
<path style="stroke: none; fill-rule: nonzero; fill: rgb(90%,90%,90%); opacity: 1;" d="M 127.811523 185.595093 L 138.434586 152.900665 L 117.188477 152.900665 "/>
<path style="fill: none; stroke-width: 0.05; stroke-linecap: round; stroke-linejoin: round; stroke: rgb(50%,0%,20%); opacity: 1;stroke-miterlimit: 10;" d="M -0 -0 L 0.809017 0.587785 L 1 0 " transform="matrix(-10.623059,-32.694414,32.694414,-10.623059,127.811529,185.595086)"/>
<path style="fill: none; stroke-width: 0.005; stroke-linecap: round; stroke-linejoin: round; stroke: rgb(50%,0%,20%); opacity: 1;stroke-miterlimit: 10;" d="M 1 0 L -0 -0 " transform="matrix(-10.623059,-32.694414,32.694414,-10.623059,127.811529,185.595086)"/>
<path style="fill: none; stroke-width: 0.01; stroke-linecap: round; stroke-linejoin: round; stroke: rgb(50%,0%,20%); opacity: 1;stroke-miterlimit: 10;" d="M 0.881966 0.363271 C 0.724587 0.312136 0.618034 0.165478 0.618034 0 " transform="matrix(-10.623059,-32.694414,32.694414,-10.623059,127.811529,185.595086)"/>
<path style="fill: none; stroke-width: 0.03; stroke-linecap: round; stroke-linejoin: round; stroke: rgb(50%,0%,20%); opacity: 1;stroke-miterlimit: 10;" d="M 0.618034 0 C 0.618034 0.130516 0.576715 0.257682 0.5 0.363271 " transform="matrix(-10.623059,-32.694414,32.694414,-10.623059,127.811529,185.595086)"/>
<path style="stroke: none; fill-rule: nonzero; fill: rgb(60%,60%,60%); opacity: 1;" d="M 138.434586 152.900665 L 117.188477 152.900665 L 145 132.694412 "/>
<path style="fill: none; stroke-width: 0.05; stroke-linecap: round; stroke-linejoin: round; stroke: rgb(50%,0%,20%); opacity: 1;stroke-miterlimit: 10;" d="M 0 0 L -0.190983 0.587785 L 0.618034 0 " transform="matrix(10.623059,-32.694414,-32.694414,-10.623059,138.434588,152.900673)"/>
<path style="fill: none; stroke-width: 0.005; stroke-linecap: round; stroke-linejoin: round; stroke: rgb(50%,0%,20%); opacity: 1;stroke-miterlimit: 10;" d="M 0.618034 0 L 0 0 " transform="matrix(10.623059,-32.694414,-32.694414,-10.623059,138.434588,152.900673)"/>
<path style="fill: none; stroke-width: 0.01; stroke-linecap: round; stroke-linejoin: round; stroke: rgb(50%,0%,20%); opacity: 1;stroke-miterlimit: 10;" d="M 0.236068 -0 C 0.236068 0.075566 0.199892 0.146566 0.138757 0.190983 C 0.077622 0.2354 -0.001081 0.247865 -0.072949 0.224514 " transform="matrix(10.623059,-32.694414,-32.694414,-10.623059,138.434588,152.900673)"/>
<path style="fill: none; stroke-width: 0.03; stroke-linecap: round; stroke-linejoin: round; stroke: rgb(50%,0%,20%); opacity: 1;stroke-miterlimit: 10;" d="M 0.309017 0.224514 C 0.261604 0.159256 0.236068 0.080663 0.236068 -0 " transform="matrix(10.623059,-32.694414,-32.694414,-10.623059,138.434588,152.900673)"/>
<path style="stroke: none; fill-rule: nonzero; fill: rgb(60%,60%,60%); opacity: 1;" d="M 106.565414 79.793747 L 127.811523 79.793747 L 100 100 "/>
<path style="fill: none; stroke-width: 0.05; stroke-linecap: round; stroke-linejoin: round; stroke: rgb(50%,0%,20%); opacity: 1;stroke-miterlimit: 10;" d="M 0 0 L -0.190983 0.587785 L 0.618034 -0 " transform="matrix(-10.623059,32.694414,32.694414,10.623059,106.565412,79.793741)"/>
<path style="fill: none; stroke-width: 0.005; stroke-linecap: round; stroke-linejoin: round; stroke: rgb(50%,0%,20%); opacity: 1;stroke-miterlimit: 10;" d="M 0.618034 -0 L 0 0 " transform="matrix(-10.623059,32.694414,32.694414,10.623059,106.565412,79.793741)"/>
<path style="fill: none; stroke-width: 0.01; stroke-linecap: round; stroke-linejoin: round; stroke: rgb(50%,0%,20%); opacity: 1;stroke-miterlimit: 10;" d="M 0.236068 -0 C 0.236068 0.075566 0.199892 0.146566 0.138757 0.190983 C 0.077622 0.2354 -0.001081 0.247865 -0.072949 0.224514 " transform="matrix(-10.623059,32.694414,32.694414,10.623059,106.565412,79.793741)"/>
<path style="fill: none; stroke-width: 0.03; stroke-linecap: round; stroke-linejoin: round; stroke: rgb(50%,0%,20%); opacity: 1;stroke-miterlimit: 10;" d="M 0.309017 0.224514 C 0.261604 0.159256 0.236068 0.080663 0.236068 -0 " transform="matrix(-10.623059,32.694414,32.694414,10.623059,106.565412,79.793741)"/>
<path style="stroke: none; fill-rule: nonzero; fill: rgb(90%,90%,90%); opacity: 1;" d="M 117.188477 47.099335 L 106.565414 79.793747 L 127.811523 79.793747 "/>
<path style="fill: none; stroke-width: 0.05; stroke-linecap: round; stroke-linejoin: round; stroke: rgb(50%,0%,20%); opacity: 1;stroke-miterlimit: 10;" d="M 0 -0 L 0.809017 0.587785 L 1 0 " transform="matrix(10.623059,32.694414,-32.694414,10.623059,117.188471,47.099327)"/>
<path style="fill: none; stroke-width: 0.005; stroke-linecap: round; stroke-linejoin: round; stroke: rgb(50%,0%,20%); opacity: 1;stroke-miterlimit: 10;" d="M 1 0 L 0 -0 " transform="matrix(10.623059,32.694414,-32.694414,10.623059,117.188471,47.099327)"/>
<path style="fill: none; stroke-width: 0.01; stroke-linecap: round; stroke-linejoin: round; stroke: rgb(50%,0%,20%); opacity: 1;stroke-miterlimit: 10;" d="M 0.881966 0.363271 C 0.724587 0.312136 0.618034 0.165478 0.618034 0 " transform="matrix(10.623059,32.694414,-32.694414,10.623059,117.188471,47.099327)"/>
<path style="fill: none; stroke-width: 0.03; stroke-linecap: round; stroke-linejoin: round; stroke: rgb(50%,0%,20%); opacity: 1;stroke-miterlimit: 10;" d="M 0.618034 0 C 0.618034 0.130516 0.576715 0.257682 0.5 0.363271 " transform="matrix(10.623059,32.694414,-32.694414,10.623059,117.188471,47.099327)"/>
<path style="stroke: none; fill-rule: nonzero; fill: rgb(90%,90%,90%); opacity: 1;" d="M 117.188477 47.099335 L 145 67.305588 L 127.811523 79.793747 "/>
<path style="fill: none; stroke-width: 0.05; stroke-linecap: round; stroke-linejoin: round; stroke: rgb(50%,0%,20%); opacity: 1;stroke-miterlimit: 10;" d="M 0 0 L 0.809017 0.587785 L 1 -0 " transform="matrix(10.623059,32.694414,32.694414,-10.623059,117.188471,47.099327)"/>
<path style="fill: none; stroke-width: 0.005; stroke-linecap: round; stroke-linejoin: round; stroke: rgb(50%,0%,20%); opacity: 1;stroke-miterlimit: 10;" d="M 1 -0 L 0 0 " transform="matrix(10.623059,32.694414,32.694414,-10.623059,117.188471,47.099327)"/>
<path style="fill: none; stroke-width: 0.01; stroke-linecap: round; stroke-linejoin: round; stroke: rgb(50%,0%,20%); opacity: 1;stroke-miterlimit: 10;" d="M 0.881966 0.363271 C 0.724587 0.312136 0.618034 0.165478 0.618034 -0 " transform="matrix(10.623059,32.694414,32.694414,-10.623059,117.188471,47.099327)"/>
<path style="fill: none; stroke-width: 0.03; stroke-linecap: round; stroke-linejoin: round; stroke: rgb(50%,0%,20%); opacity: 1;stroke-miterlimit: 10;" d="M 0.618034 -0 C 0.618034 0.130516 0.576715 0.257682 0.5 0.363271 " transform="matrix(10.623059,32.694414,32.694414,-10.623059,117.188471,47.099327)"/>
<path style="stroke: none; fill-rule: nonzero; fill: rgb(90%,90%,90%); opacity: 1;" d="M 127.811523 14.404907 L 138.434586 47.099335 L 117.188477 47.099335 "/>
<path style="fill: none; stroke-width: 0.05; stroke-linecap: round; stroke-linejoin: round; stroke: rgb(50%,0%,20%); opacity: 1;stroke-miterlimit: 10;" d="M -0 -0 L 0.809017 0.587785 L 1 0 " transform="matrix(-10.623059,32.694414,32.694414,10.623059,127.811529,14.404914)"/>
<path style="fill: none; stroke-width: 0.005; stroke-linecap: round; stroke-linejoin: round; stroke: rgb(50%,0%,20%); opacity: 1;stroke-miterlimit: 10;" d="M 1 0 L -0 -0 " transform="matrix(-10.623059,32.694414,32.694414,10.623059,127.811529,14.404914)"/>
<path style="fill: none; stroke-width: 0.01; stroke-linecap: round; stroke-linejoin: round; stroke: rgb(50%,0%,20%); opacity: 1;stroke-miterlimit: 10;" d="M 0.881966 0.363271 C 0.724587 0.312136 0.618034 0.165478 0.618034 0 " transform="matrix(-10.623059,32.694414,32.694414,10.623059,127.811529,14.404914)"/>
<path style="fill: none; stroke-width: 0.03; stroke-linecap: round; stroke-linejoin: round; stroke: rgb(50%,0%,20%); opacity: 1;stroke-miterlimit: 10;" d="M 0.618034 0 C 0.618034 0.130516 0.576715 0.257682 0.5 0.363271 " transform="matrix(-10.623059,32.694414,32.694414,10.623059,127.811529,14.404914)"/>
<path style="stroke: none; fill-rule: nonzero; fill: rgb(60%,60%,60%); opacity: 1;" d="M 138.434586 47.099335 L 117.188477 47.099335 L 145 67.305588 "/>
<path style="fill: none; stroke-width: 0.05; stroke-linecap: round; stroke-linejoin: round; stroke: rgb(50%,0%,20%); opacity: 1;stroke-miterlimit: 10;" d="M 0 0 L -0.190983 0.587785 L 0.618034 0 " transform="matrix(10.623059,32.694414,-32.694414,10.623059,138.434588,47.099327)"/>
<path style="fill: none; stroke-width: 0.005; stroke-linecap: round; stroke-linejoin: round; stroke: rgb(50%,0%,20%); opacity: 1;stroke-miterlimit: 10;" d="M 0.618034 0 L 0 0 " transform="matrix(10.623059,32.694414,-32.694414,10.623059,138.434588,47.099327)"/>
<path style="fill: none; stroke-width: 0.01; stroke-linecap: round; stroke-linejoin: round; stroke: rgb(50%,0%,20%); opacity: 1;stroke-miterlimit: 10;" d="M 0.236068 -0 C 0.236068 0.075566 0.199892 0.146566 0.138757 0.190983 C 0.077622 0.2354 -0.001081 0.247865 -0.072949 0.224514 " transform="matrix(10.623059,32.694414,-32.694414,10.623059,138.434588,47.099327)"/>
<path style="fill: none; stroke-width: 0.03; stroke-linecap: round; stroke-linejoin: round; stroke: rgb(50%,0%,20%); opacity: 1;stroke-miterlimit: 10;" d="M 0.309017 0.224514 C 0.261604 0.159256 0.236068 0.080663 0.236068 -0 " transform="matrix(10.623059,32.694414,-32.694414,10.623059,138.434588,47.099327)"/>
<path style="stroke: none; fill-rule: nonzero; fill: rgb(60%,60%,60%); opacity: 1;" d="M 121.246124 100 L 127.811523 79.793747 L 100 100 "/>
<path style="fill: none; stroke-width: 0.05; stroke-linecap: round; stroke-linejoin: round; stroke: rgb(50%,0%,20%); opacity: 1;stroke-miterlimit: 10;" d="M -0 0 L -0.190983 0.587785 L 0.618034 0 " transform="matrix(-34.376941,-0,0,-34.376941,121.246118,100)"/>
<path style="fill: none; stroke-width: 0.005; stroke-linecap: round; stroke-linejoin: round; stroke: rgb(50%,0%,20%); opacity: 1;stroke-miterlimit: 10;" d="M 0.618034 0 L -0 0 " transform="matrix(-34.376941,-0,0,-34.376941,121.246118,100)"/>
<path style="fill: none; stroke-width: 0.01; stroke-linecap: round; stroke-linejoin: round; stroke: rgb(50%,0%,20%); opacity: 1;stroke-miterlimit: 10;" d="M 0.236068 0 C 0.236068 0.075567 0.199892 0.146566 0.138757 0.190983 C 0.077623 0.2354 -0.001081 0.247866 -0.072949 0.224514 " transform="matrix(-34.376941,-0,0,-34.376941,121.246118,100)"/>
<path style="fill: none; stroke-width: 0.03; stroke-linecap: round; stroke-linejoin: round; stroke: rgb(50%,0%,20%); opacity: 1;stroke-miterlimit: 10;" d="M 0.309017 0.224514 C 0.261604 0.159256 0.236068 0.080664 0.236068 0 " transform="matrix(-34.376941,-0,0,-34.376941,121.246118,100)"/>
<path style="stroke: none; fill-rule: nonzero; fill: rgb(90%,90%,90%); opacity: 1;" d="M 155.623062 100 L 121.246124 100 L 127.811523 79.793747 "/>
<path style="fill: none; stroke-width: 0.05; stroke-linecap: round; stroke-linejoin: round; stroke: rgb(50%,0%,20%); opacity: 1;stroke-miterlimit: 10;" d="M -0 -0 L 0.809017 0.587785 L 1 0 " transform="matrix(-27.811529,-20.206259,-20.206259,27.811529,155.623059,100)"/>
<path style="fill: none; stroke-width: 0.005; stroke-linecap: round; stroke-linejoin: round; stroke: rgb(50%,0%,20%); opacity: 1;stroke-miterlimit: 10;" d="M 1 0 L -0 -0 " transform="matrix(-27.811529,-20.206259,-20.206259,27.811529,155.623059,100)"/>
<path style="fill: none; stroke-width: 0.01; stroke-linecap: round; stroke-linejoin: round; stroke: rgb(50%,0%,20%); opacity: 1;stroke-miterlimit: 10;" d="M 0.881966 0.363271 C 0.724587 0.312136 0.618034 0.165478 0.618034 -0 " transform="matrix(-27.811529,-20.206259,-20.206259,27.811529,155.623059,100)"/>
<path style="fill: none; stroke-width: 0.03; stroke-linecap: round; stroke-linejoin: round; stroke: rgb(50%,0%,20%); opacity: 1;stroke-miterlimit: 10;" d="M 0.618034 -0 C 0.618034 0.130516 0.576715 0.257682 0.5 0.363271 " transform="matrix(-27.811529,-20.206259,-20.206259,27.811529,155.623059,100)"/>
<path style="stroke: none; fill-rule: nonzero; fill: rgb(90%,90%,90%); opacity: 1;" d="M 155.623062 100 L 145 67.305588 L 127.811523 79.793747 "/>
<path style="fill: none; stroke-width: 0.05; stroke-linecap: round; stroke-linejoin: round; stroke: rgb(50%,0%,20%); opacity: 1;stroke-miterlimit: 10;" d="M -0 0 L 0.809017 0.587785 L 1 -0 " transform="matrix(-27.811529,-20.206259,20.206259,-27.811529,155.623059,100)"/>
<path style="fill: none; stroke-width: 0.005; stroke-linecap: round; stroke-linejoin: round; stroke: rgb(50%,0%,20%); opacity: 1;stroke-miterlimit: 10;" d="M 1 -0 L -0 0 " transform="matrix(-27.811529,-20.206259,20.206259,-27.811529,155.623059,100)"/>
<path style="fill: none; stroke-width: 0.01; stroke-linecap: round; stroke-linejoin: round; stroke: rgb(50%,0%,20%); opacity: 1;stroke-miterlimit: 10;" d="M 0.881966 0.363271 C 0.724587 0.312136 0.618034 0.165478 0.618034 0 " transform="matrix(-27.811529,-20.206259,20.206259,-27.811529,155.623059,100)"/>
<path style="fill: none; stroke-width: 0.03; stroke-linecap: round; stroke-linejoin: round; stroke: rgb(50%,0%,20%); opacity: 1;stroke-miterlimit: 10;" d="M 0.618034 0 C 0.618034 0.130516 0.576715 0.257682 0.5 0.363271 " transform="matrix(-27.811529,-20.206259,20.206259,-27.811529,155.623059,100)"/>
<path style="stroke: none; fill-rule: nonzero; fill: rgb(90%,90%,90%); opacity: 1;" d="M 190 100 L 162.188477 79.793747 L 155.623062 100 "/>
<path style="fill: none; stroke-width: 0.05; stroke-linecap: round; stroke-linejoin: round; stroke: rgb(50%,0%,20%); opacity: 1;stroke-miterlimit: 10;" d="M -0 0 L 0.809017 0.587785 L 1 0 " transform="matrix(-34.376941,-0,0,-34.376941,190,100)"/>
<path style="fill: none; stroke-width: 0.005; stroke-linecap: round; stroke-linejoin: round; stroke: rgb(50%,0%,20%); opacity: 1;stroke-miterlimit: 10;" d="M 1 0 L -0 0 " transform="matrix(-34.376941,-0,0,-34.376941,190,100)"/>
<path style="fill: none; stroke-width: 0.01; stroke-linecap: round; stroke-linejoin: round; stroke: rgb(50%,0%,20%); opacity: 1;stroke-miterlimit: 10;" d="M 0.881966 0.363271 C 0.724588 0.312136 0.618034 0.165478 0.618034 0 " transform="matrix(-34.376941,-0,0,-34.376941,190,100)"/>
<path style="fill: none; stroke-width: 0.03; stroke-linecap: round; stroke-linejoin: round; stroke: rgb(50%,0%,20%); opacity: 1;stroke-miterlimit: 10;" d="M 0.618034 0 C 0.618034 0.130516 0.576715 0.257682 0.5 0.363271 " transform="matrix(-34.376941,-0,0,-34.376941,190,100)"/>
<path style="stroke: none; fill-rule: nonzero; fill: rgb(60%,60%,60%); opacity: 1;" d="M 162.188477 79.793747 L 155.623062 100 L 145 67.305588 "/>
<path style="fill: none; stroke-width: 0.05; stroke-linecap: round; stroke-linejoin: round; stroke: rgb(50%,0%,20%); opacity: 1;stroke-miterlimit: 10;" d="M -0 0 L -0.190983 0.587785 L 0.618034 0 " transform="matrix(-27.811529,-20.206259,-20.206259,27.811529,162.188471,79.793741)"/>
<path style="fill: none; stroke-width: 0.005; stroke-linecap: round; stroke-linejoin: round; stroke: rgb(50%,0%,20%); opacity: 1;stroke-miterlimit: 10;" d="M 0.618034 0 L -0 0 " transform="matrix(-27.811529,-20.206259,-20.206259,27.811529,162.188471,79.793741)"/>
<path style="fill: none; stroke-width: 0.01; stroke-linecap: round; stroke-linejoin: round; stroke: rgb(50%,0%,20%); opacity: 1;stroke-miterlimit: 10;" d="M 0.236068 0 C 0.236068 0.075566 0.199892 0.146566 0.138757 0.190983 C 0.077623 0.2354 -0.001081 0.247865 -0.072949 0.224514 " transform="matrix(-27.811529,-20.206259,-20.206259,27.811529,162.188471,79.793741)"/>
<path style="fill: none; stroke-width: 0.03; stroke-linecap: round; stroke-linejoin: round; stroke: rgb(50%,0%,20%); opacity: 1;stroke-miterlimit: 10;" d="M 0.309017 0.224514 C 0.261604 0.159256 0.236068 0.080663 0.236068 0 " transform="matrix(-27.811529,-20.206259,-20.206259,27.811529,162.188471,79.793741)"/>
<path style="stroke: none; fill-rule: nonzero; fill: rgb(60%,60%,60%); opacity: 1;" d="M 121.246124 100 L 127.811523 120.206253 L 100 100 "/>
<path style="fill: none; stroke-width: 0.05; stroke-linecap: round; stroke-linejoin: round; stroke: rgb(50%,0%,20%); opacity: 1;stroke-miterlimit: 10;" d="M -0 0 L -0.190983 0.587785 L 0.618034 0 " transform="matrix(-34.376941,0,0,34.376941,121.246118,100)"/>
<path style="fill: none; stroke-width: 0.005; stroke-linecap: round; stroke-linejoin: round; stroke: rgb(50%,0%,20%); opacity: 1;stroke-miterlimit: 10;" d="M 0.618034 0 L -0 0 " transform="matrix(-34.376941,0,0,34.376941,121.246118,100)"/>
<path style="fill: none; stroke-width: 0.01; stroke-linecap: round; stroke-linejoin: round; stroke: rgb(50%,0%,20%); opacity: 1;stroke-miterlimit: 10;" d="M 0.236068 0 C 0.236068 0.075567 0.199892 0.146566 0.138757 0.190983 C 0.077623 0.2354 -0.001081 0.247866 -0.072949 0.224514 " transform="matrix(-34.376941,0,0,34.376941,121.246118,100)"/>
<path style="fill: none; stroke-width: 0.03; stroke-linecap: round; stroke-linejoin: round; stroke: rgb(50%,0%,20%); opacity: 1;stroke-miterlimit: 10;" d="M 0.309017 0.224514 C 0.261604 0.159256 0.236068 0.080664 0.236068 0 " transform="matrix(-34.376941,0,0,34.376941,121.246118,100)"/>
<path style="stroke: none; fill-rule: nonzero; fill: rgb(90%,90%,90%); opacity: 1;" d="M 155.623062 100 L 121.246124 100 L 127.811523 120.206253 "/>
<path style="fill: none; stroke-width: 0.05; stroke-linecap: round; stroke-linejoin: round; stroke: rgb(50%,0%,20%); opacity: 1;stroke-miterlimit: 10;" d="M -0 -0 L 0.809017 0.587785 L 1 0 " transform="matrix(-27.811529,20.206259,-20.206259,-27.811529,155.623059,100)"/>
<path style="fill: none; stroke-width: 0.005; stroke-linecap: round; stroke-linejoin: round; stroke: rgb(50%,0%,20%); opacity: 1;stroke-miterlimit: 10;" d="M 1 0 L -0 -0 " transform="matrix(-27.811529,20.206259,-20.206259,-27.811529,155.623059,100)"/>
<path style="fill: none; stroke-width: 0.01; stroke-linecap: round; stroke-linejoin: round; stroke: rgb(50%,0%,20%); opacity: 1;stroke-miterlimit: 10;" d="M 0.881966 0.363271 C 0.724587 0.312136 0.618034 0.165478 0.618034 -0 " transform="matrix(-27.811529,20.206259,-20.206259,-27.811529,155.623059,100)"/>
<path style="fill: none; stroke-width: 0.03; stroke-linecap: round; stroke-linejoin: round; stroke: rgb(50%,0%,20%); opacity: 1;stroke-miterlimit: 10;" d="M 0.618034 -0 C 0.618034 0.130516 0.576715 0.257682 0.5 0.363271 " transform="matrix(-27.811529,20.206259,-20.206259,-27.811529,155.623059,100)"/>
<path style="stroke: none; fill-rule: nonzero; fill: rgb(90%,90%,90%); opacity: 1;" d="M 155.623062 100 L 145 132.694412 L 127.811523 120.206253 "/>
<path style="fill: none; stroke-width: 0.05; stroke-linecap: round; stroke-linejoin: round; stroke: rgb(50%,0%,20%); opacity: 1;stroke-miterlimit: 10;" d="M -0 0 L 0.809017 0.587785 L 1 -0 " transform="matrix(-27.811529,20.206259,20.206259,27.811529,155.623059,100)"/>
<path style="fill: none; stroke-width: 0.005; stroke-linecap: round; stroke-linejoin: round; stroke: rgb(50%,0%,20%); opacity: 1;stroke-miterlimit: 10;" d="M 1 -0 L -0 0 " transform="matrix(-27.811529,20.206259,20.206259,27.811529,155.623059,100)"/>
<path style="fill: none; stroke-width: 0.01; stroke-linecap: round; stroke-linejoin: round; stroke: rgb(50%,0%,20%); opacity: 1;stroke-miterlimit: 10;" d="M 0.881966 0.363271 C 0.724587 0.312136 0.618034 0.165478 0.618034 0 " transform="matrix(-27.811529,20.206259,20.206259,27.811529,155.623059,100)"/>
<path style="fill: none; stroke-width: 0.03; stroke-linecap: round; stroke-linejoin: round; stroke: rgb(50%,0%,20%); opacity: 1;stroke-miterlimit: 10;" d="M 0.618034 0 C 0.618034 0.130516 0.576715 0.257682 0.5 0.363271 " transform="matrix(-27.811529,20.206259,20.206259,27.811529,155.623059,100)"/>
<path style="stroke: none; fill-rule: nonzero; fill: rgb(90%,90%,90%); opacity: 1;" d="M 190 100 L 162.188477 120.206253 L 155.623062 100 "/>
<path style="fill: none; stroke-width: 0.05; stroke-linecap: round; stroke-linejoin: round; stroke: rgb(50%,0%,20%); opacity: 1;stroke-miterlimit: 10;" d="M -0 0 L 0.809017 0.587785 L 1 0 " transform="matrix(-34.376941,0,0,34.376941,190,100)"/>
<path style="fill: none; stroke-width: 0.005; stroke-linecap: round; stroke-linejoin: round; stroke: rgb(50%,0%,20%); opacity: 1;stroke-miterlimit: 10;" d="M 1 0 L -0 0 " transform="matrix(-34.376941,0,0,34.376941,190,100)"/>
<path style="fill: none; stroke-width: 0.01; stroke-linecap: round; stroke-linejoin: round; stroke: rgb(50%,0%,20%); opacity: 1;stroke-miterlimit: 10;" d="M 0.881966 0.363271 C 0.724588 0.312136 0.618034 0.165478 0.618034 0 " transform="matrix(-34.376941,0,0,34.376941,190,100)"/>
<path style="fill: none; stroke-width: 0.03; stroke-linecap: round; stroke-linejoin: round; stroke: rgb(50%,0%,20%); opacity: 1;stroke-miterlimit: 10;" d="M 0.618034 0 C 0.618034 0.130516 0.576715 0.257682 0.5 0.363271 " transform="matrix(-34.376941,0,0,34.376941,190,100)"/>
<path style="stroke: none; fill-rule: nonzero; fill: rgb(60%,60%,60%); opacity: 1;" d="M 162.188477 120.206253 L 155.623062 100 L 145 132.694412 "/>
<path style="fill: none; stroke-width: 0.05; stroke-linecap: round; stroke-linejoin: round; stroke: rgb(50%,0%,20%); opacity: 1;stroke-miterlimit: 10;" d="M -0 0 L -0.190983 0.587785 L 0.618034 0 " transform="matrix(-27.811529,20.206259,-20.206259,-27.811529,162.188471,120.206259)"/>
<path style="fill: none; stroke-width: 0.005; stroke-linecap: round; stroke-linejoin: round; stroke: rgb(50%,0%,20%); opacity: 1;stroke-miterlimit: 10;" d="M 0.618034 0 L -0 0 " transform="matrix(-27.811529,20.206259,-20.206259,-27.811529,162.188471,120.206259)"/>
<path style="fill: none; stroke-width: 0.01; stroke-linecap: round; stroke-linejoin: round; stroke: rgb(50%,0%,20%); opacity: 1;stroke-miterlimit: 10;" d="M 0.236068 0 C 0.236068 0.075566 0.199892 0.146566 0.138757 0.190983 C 0.077623 0.2354 -0.001081 0.247865 -0.072949 0.224514 " transform="matrix(-27.811529,20.206259,-20.206259,-27.811529,162.188471,120.206259)"/>
<path style="fill: none; stroke-width: 0.03; stroke-linecap: round; stroke-linejoin: round; stroke: rgb(50%,0%,20%); opacity: 1;stroke-miterlimit: 10;" d="M 0.309017 0.224514 C 0.261604 0.159256 0.236068 0.080663 0.236068 0 " transform="matrix(-27.811529,20.206259,-20.206259,-27.811529,162.188471,120.206259)"/>
<path style="stroke: none; fill-rule: nonzero; fill: rgb(60%,60%,60%); opacity: 1;" d="M 106.565414 79.793747 L 89.376938 67.305588 L 100 100 "/>
<path style="fill: none; stroke-width: 0.05; stroke-linecap: round; stroke-linejoin: round; stroke: rgb(50%,0%,20%); opacity: 1;stroke-miterlimit: 10;" d="M 0 -0 L -0.190983 0.587785 L 0.618034 0 " transform="matrix(-10.623059,32.694414,-32.694414,-10.623059,106.565412,79.793741)"/>
<path style="fill: none; stroke-width: 0.005; stroke-linecap: round; stroke-linejoin: round; stroke: rgb(50%,0%,20%); opacity: 1;stroke-miterlimit: 10;" d="M 0.618034 0 L 0 -0 " transform="matrix(-10.623059,32.694414,-32.694414,-10.623059,106.565412,79.793741)"/>
<path style="fill: none; stroke-width: 0.01; stroke-linecap: round; stroke-linejoin: round; stroke: rgb(50%,0%,20%); opacity: 1;stroke-miterlimit: 10;" d="M 0.236068 0 C 0.236068 0.075567 0.199892 0.146566 0.138757 0.190983 C 0.077623 0.2354 -0.001081 0.247865 -0.072949 0.224514 " transform="matrix(-10.623059,32.694414,-32.694414,-10.623059,106.565412,79.793741)"/>
<path style="fill: none; stroke-width: 0.03; stroke-linecap: round; stroke-linejoin: round; stroke: rgb(50%,0%,20%); opacity: 1;stroke-miterlimit: 10;" d="M 0.309017 0.224514 C 0.261604 0.159256 0.236068 0.080663 0.236068 0 " transform="matrix(-10.623059,32.694414,-32.694414,-10.623059,106.565412,79.793741)"/>
<path style="stroke: none; fill-rule: nonzero; fill: rgb(90%,90%,90%); opacity: 1;" d="M 117.188477 47.099335 L 106.565414 79.793747 L 89.376938 67.305588 "/>
<path style="fill: none; stroke-width: 0.05; stroke-linecap: round; stroke-linejoin: round; stroke: rgb(50%,0%,20%); opacity: 1;stroke-miterlimit: 10;" d="M -0 0 L 0.809017 0.587785 L 1 -0 " transform="matrix(-27.811529,20.206259,20.206259,27.811529,117.188471,47.099327)"/>
<path style="fill: none; stroke-width: 0.005; stroke-linecap: round; stroke-linejoin: round; stroke: rgb(50%,0%,20%); opacity: 1;stroke-miterlimit: 10;" d="M 1 -0 L -0 0 " transform="matrix(-27.811529,20.206259,20.206259,27.811529,117.188471,47.099327)"/>
<path style="fill: none; stroke-width: 0.01; stroke-linecap: round; stroke-linejoin: round; stroke: rgb(50%,0%,20%); opacity: 1;stroke-miterlimit: 10;" d="M 0.881966 0.363271 C 0.724587 0.312136 0.618034 0.165478 0.618034 -0 " transform="matrix(-27.811529,20.206259,20.206259,27.811529,117.188471,47.099327)"/>
<path style="fill: none; stroke-width: 0.03; stroke-linecap: round; stroke-linejoin: round; stroke: rgb(50%,0%,20%); opacity: 1;stroke-miterlimit: 10;" d="M 0.618034 -0 C 0.618034 0.130516 0.576716 0.257682 0.5 0.363271 " transform="matrix(-27.811529,20.206259,20.206259,27.811529,117.188471,47.099327)"/>
<path style="stroke: none; fill-rule: nonzero; fill: rgb(90%,90%,90%); opacity: 1;" d="M 117.188477 47.099335 L 82.811523 47.099335 L 89.376938 67.305588 "/>
<path style="fill: none; stroke-width: 0.05; stroke-linecap: round; stroke-linejoin: round; stroke: rgb(50%,0%,20%); opacity: 1;stroke-miterlimit: 10;" d="M -0 -0 L 0.809017 0.587785 L 1 0 " transform="matrix(-27.811529,20.206259,-20.206259,-27.811529,117.188471,47.099327)"/>
<path style="fill: none; stroke-width: 0.005; stroke-linecap: round; stroke-linejoin: round; stroke: rgb(50%,0%,20%); opacity: 1;stroke-miterlimit: 10;" d="M 1 0 L -0 -0 " transform="matrix(-27.811529,20.206259,-20.206259,-27.811529,117.188471,47.099327)"/>
<path style="fill: none; stroke-width: 0.01; stroke-linecap: round; stroke-linejoin: round; stroke: rgb(50%,0%,20%); opacity: 1;stroke-miterlimit: 10;" d="M 0.881966 0.363271 C 0.724587 0.312136 0.618034 0.165478 0.618034 0 " transform="matrix(-27.811529,20.206259,-20.206259,-27.811529,117.188471,47.099327)"/>
<path style="fill: none; stroke-width: 0.03; stroke-linecap: round; stroke-linejoin: round; stroke: rgb(50%,0%,20%); opacity: 1;stroke-miterlimit: 10;" d="M 0.618034 0 C 0.618034 0.130516 0.576715 0.257682 0.5 0.363271 " transform="matrix(-27.811529,20.206259,-20.206259,-27.811529,117.188471,47.099327)"/>
<path style="stroke: none; fill-rule: nonzero; fill: rgb(90%,90%,90%); opacity: 1;" d="M 127.811523 14.404907 L 100 34.611176 L 117.188477 47.099335 "/>
<path style="fill: none; stroke-width: 0.05; stroke-linecap: round; stroke-linejoin: round; stroke: rgb(50%,0%,20%); opacity: 1;stroke-miterlimit: 10;" d="M -0 0 L 0.809017 0.587785 L 1 -0 " transform="matrix(-10.623059,32.694414,-32.694414,-10.623059,127.811529,14.404914)"/>
<path style="fill: none; stroke-width: 0.005; stroke-linecap: round; stroke-linejoin: round; stroke: rgb(50%,0%,20%); opacity: 1;stroke-miterlimit: 10;" d="M 1 -0 L -0 0 " transform="matrix(-10.623059,32.694414,-32.694414,-10.623059,127.811529,14.404914)"/>
<path style="fill: none; stroke-width: 0.01; stroke-linecap: round; stroke-linejoin: round; stroke: rgb(50%,0%,20%); opacity: 1;stroke-miterlimit: 10;" d="M 0.881966 0.363271 C 0.724587 0.312136 0.618034 0.165478 0.618034 -0 " transform="matrix(-10.623059,32.694414,-32.694414,-10.623059,127.811529,14.404914)"/>
<path style="fill: none; stroke-width: 0.03; stroke-linecap: round; stroke-linejoin: round; stroke: rgb(50%,0%,20%); opacity: 1;stroke-miterlimit: 10;" d="M 0.618034 -0 C 0.618034 0.130516 0.576715 0.257682 0.5 0.363271 " transform="matrix(-10.623059,32.694414,-32.694414,-10.623059,127.811529,14.404914)"/>
<path style="stroke: none; fill-rule: nonzero; fill: rgb(60%,60%,60%); opacity: 1;" d="M 100 34.611176 L 117.188477 47.099335 L 82.811523 47.099335 "/>
<path style="fill: none; stroke-width: 0.05; stroke-linecap: round; stroke-linejoin: round; stroke: rgb(50%,0%,20%); opacity: 1;stroke-miterlimit: 10;" d="M 0 0 L -0.190983 0.587786 L 0.618034 0 " transform="matrix(-27.811529,20.206259,20.206259,27.811529,100,34.611172)"/>
<path style="fill: none; stroke-width: 0.005; stroke-linecap: round; stroke-linejoin: round; stroke: rgb(50%,0%,20%); opacity: 1;stroke-miterlimit: 10;" d="M 0.618034 0 L 0 0 " transform="matrix(-27.811529,20.206259,20.206259,27.811529,100,34.611172)"/>
<path style="fill: none; stroke-width: 0.01; stroke-linecap: round; stroke-linejoin: round; stroke: rgb(50%,0%,20%); opacity: 1;stroke-miterlimit: 10;" d="M 0.236068 0 C 0.236068 0.075567 0.199892 0.146566 0.138757 0.190983 C 0.077623 0.2354 -0.001081 0.247866 -0.072949 0.224514 " transform="matrix(-27.811529,20.206259,20.206259,27.811529,100,34.611172)"/>
<path style="fill: none; stroke-width: 0.03; stroke-linecap: round; stroke-linejoin: round; stroke: rgb(50%,0%,20%); opacity: 1;stroke-miterlimit: 10;" d="M 0.309017 0.224514 C 0.261604 0.159256 0.236068 0.080663 0.236068 0 " transform="matrix(-27.811529,20.206259,20.206259,27.811529,100,34.611172)"/>
<path style="stroke: none; fill-rule: nonzero; fill: rgb(60%,60%,60%); opacity: 1;" d="M 106.565414 120.206253 L 89.376938 132.694412 L 100 100 "/>
<path style="fill: none; stroke-width: 0.05; stroke-linecap: round; stroke-linejoin: round; stroke: rgb(50%,0%,20%); opacity: 1;stroke-miterlimit: 10;" d="M 0 -0 L -0.190983 0.587785 L 0.618034 0 " transform="matrix(-10.623059,-32.694414,-32.694414,10.623059,106.565412,120.206259)"/>
<path style="fill: none; stroke-width: 0.005; stroke-linecap: round; stroke-linejoin: round; stroke: rgb(50%,0%,20%); opacity: 1;stroke-miterlimit: 10;" d="M 0.618034 0 L 0 -0 " transform="matrix(-10.623059,-32.694414,-32.694414,10.623059,106.565412,120.206259)"/>
<path style="fill: none; stroke-width: 0.01; stroke-linecap: round; stroke-linejoin: round; stroke: rgb(50%,0%,20%); opacity: 1;stroke-miterlimit: 10;" d="M 0.236068 0 C 0.236068 0.075567 0.199892 0.146566 0.138757 0.190983 C 0.077623 0.2354 -0.001081 0.247865 -0.072949 0.224514 " transform="matrix(-10.623059,-32.694414,-32.694414,10.623059,106.565412,120.206259)"/>
<path style="fill: none; stroke-width: 0.03; stroke-linecap: round; stroke-linejoin: round; stroke: rgb(50%,0%,20%); opacity: 1;stroke-miterlimit: 10;" d="M 0.309017 0.224514 C 0.261604 0.159256 0.236068 0.080663 0.236068 0 " transform="matrix(-10.623059,-32.694414,-32.694414,10.623059,106.565412,120.206259)"/>
<path style="stroke: none; fill-rule: nonzero; fill: rgb(90%,90%,90%); opacity: 1;" d="M 117.188477 152.900665 L 106.565414 120.206253 L 89.376938 132.694412 "/>
<path style="fill: none; stroke-width: 0.05; stroke-linecap: round; stroke-linejoin: round; stroke: rgb(50%,0%,20%); opacity: 1;stroke-miterlimit: 10;" d="M -0 0 L 0.809017 0.587785 L 1 -0 " transform="matrix(-27.811529,-20.206259,20.206259,-27.811529,117.188471,152.900673)"/>
<path style="fill: none; stroke-width: 0.005; stroke-linecap: round; stroke-linejoin: round; stroke: rgb(50%,0%,20%); opacity: 1;stroke-miterlimit: 10;" d="M 1 -0 L -0 0 " transform="matrix(-27.811529,-20.206259,20.206259,-27.811529,117.188471,152.900673)"/>
<path style="fill: none; stroke-width: 0.01; stroke-linecap: round; stroke-linejoin: round; stroke: rgb(50%,0%,20%); opacity: 1;stroke-miterlimit: 10;" d="M 0.881966 0.363271 C 0.724587 0.312136 0.618034 0.165478 0.618034 -0 " transform="matrix(-27.811529,-20.206259,20.206259,-27.811529,117.188471,152.900673)"/>
<path style="fill: none; stroke-width: 0.03; stroke-linecap: round; stroke-linejoin: round; stroke: rgb(50%,0%,20%); opacity: 1;stroke-miterlimit: 10;" d="M 0.618034 -0 C 0.618034 0.130516 0.576716 0.257682 0.5 0.363271 " transform="matrix(-27.811529,-20.206259,20.206259,-27.811529,117.188471,152.900673)"/>
<path style="stroke: none; fill-rule: nonzero; fill: rgb(90%,90%,90%); opacity: 1;" d="M 117.188477 152.900665 L 82.811523 152.900665 L 89.376938 132.694412 "/>
<path style="fill: none; stroke-width: 0.05; stroke-linecap: round; stroke-linejoin: round; stroke: rgb(50%,0%,20%); opacity: 1;stroke-miterlimit: 10;" d="M -0 -0 L 0.809017 0.587785 L 1 0 " transform="matrix(-27.811529,-20.206259,-20.206259,27.811529,117.188471,152.900673)"/>
<path style="fill: none; stroke-width: 0.005; stroke-linecap: round; stroke-linejoin: round; stroke: rgb(50%,0%,20%); opacity: 1;stroke-miterlimit: 10;" d="M 1 0 L -0 -0 " transform="matrix(-27.811529,-20.206259,-20.206259,27.811529,117.188471,152.900673)"/>
<path style="fill: none; stroke-width: 0.01; stroke-linecap: round; stroke-linejoin: round; stroke: rgb(50%,0%,20%); opacity: 1;stroke-miterlimit: 10;" d="M 0.881966 0.363271 C 0.724587 0.312136 0.618034 0.165478 0.618034 0 " transform="matrix(-27.811529,-20.206259,-20.206259,27.811529,117.188471,152.900673)"/>
<path style="fill: none; stroke-width: 0.03; stroke-linecap: round; stroke-linejoin: round; stroke: rgb(50%,0%,20%); opacity: 1;stroke-miterlimit: 10;" d="M 0.618034 0 C 0.618034 0.130516 0.576715 0.257682 0.5 0.363271 " transform="matrix(-27.811529,-20.206259,-20.206259,27.811529,117.188471,152.900673)"/>
<path style="stroke: none; fill-rule: nonzero; fill: rgb(90%,90%,90%); opacity: 1;" d="M 127.811523 185.595093 L 100 165.388824 L 117.188477 152.900665 "/>
<path style="fill: none; stroke-width: 0.05; stroke-linecap: round; stroke-linejoin: round; stroke: rgb(50%,0%,20%); opacity: 1;stroke-miterlimit: 10;" d="M -0 0 L 0.809017 0.587785 L 1 -0 " transform="matrix(-10.623059,-32.694414,-32.694414,10.623059,127.811529,185.595086)"/>
<path style="fill: none; stroke-width: 0.005; stroke-linecap: round; stroke-linejoin: round; stroke: rgb(50%,0%,20%); opacity: 1;stroke-miterlimit: 10;" d="M 1 -0 L -0 0 " transform="matrix(-10.623059,-32.694414,-32.694414,10.623059,127.811529,185.595086)"/>
<path style="fill: none; stroke-width: 0.01; stroke-linecap: round; stroke-linejoin: round; stroke: rgb(50%,0%,20%); opacity: 1;stroke-miterlimit: 10;" d="M 0.881966 0.363271 C 0.724587 0.312136 0.618034 0.165478 0.618034 -0 " transform="matrix(-10.623059,-32.694414,-32.694414,10.623059,127.811529,185.595086)"/>
<path style="fill: none; stroke-width: 0.03; stroke-linecap: round; stroke-linejoin: round; stroke: rgb(50%,0%,20%); opacity: 1;stroke-miterlimit: 10;" d="M 0.618034 -0 C 0.618034 0.130516 0.576715 0.257682 0.5 0.363271 " transform="matrix(-10.623059,-32.694414,-32.694414,10.623059,127.811529,185.595086)"/>
<path style="stroke: none; fill-rule: nonzero; fill: rgb(60%,60%,60%); opacity: 1;" d="M 100 165.388824 L 117.188477 152.900665 L 82.811523 152.900665 "/>
<path style="fill: none; stroke-width: 0.05; stroke-linecap: round; stroke-linejoin: round; stroke: rgb(50%,0%,20%); opacity: 1;stroke-miterlimit: 10;" d="M 0 0 L -0.190983 0.587786 L 0.618034 0 " transform="matrix(-27.811529,-20.206259,20.206259,-27.811529,100,165.388828)"/>
<path style="fill: none; stroke-width: 0.005; stroke-linecap: round; stroke-linejoin: round; stroke: rgb(50%,0%,20%); opacity: 1;stroke-miterlimit: 10;" d="M 0.618034 0 L 0 0 " transform="matrix(-27.811529,-20.206259,20.206259,-27.811529,100,165.388828)"/>
<path style="fill: none; stroke-width: 0.01; stroke-linecap: round; stroke-linejoin: round; stroke: rgb(50%,0%,20%); opacity: 1;stroke-miterlimit: 10;" d="M 0.236068 0 C 0.236068 0.075567 0.199892 0.146566 0.138757 0.190983 C 0.077623 0.2354 -0.001081 0.247866 -0.072949 0.224514 " transform="matrix(-27.811529,-20.206259,20.206259,-27.811529,100,165.388828)"/>
<path style="fill: none; stroke-width: 0.03; stroke-linecap: round; stroke-linejoin: round; stroke: rgb(50%,0%,20%); opacity: 1;stroke-miterlimit: 10;" d="M 0.309017 0.224514 C 0.261604 0.159256 0.236068 0.080663 0.236068 0 " transform="matrix(-27.811529,-20.206259,20.206259,-27.811529,100,165.388828)"/>
</g>
</svg>
