<?xml version="1.0" standalone="no"?>
<!DOCTYPE svg PUBLIC "-//W3C//DTD SVG 20010904//EN"
 "http://www.w3.org/TR/2001/REC-SVG-20010904/DTD/svg10.dtd">
<svg version="1.0" xmlns="http://www.w3.org/2000/svg"
 width="834.000000pt" height="834.000000pt" viewBox="0 0 834.000000 834.000000"
 preserveAspectRatio="xMidYMid meet">
<metadata>
Created by potrace 1.13, written by Peter Selinger 2001-2015
</metadata>
<g transform="translate(0.000000,834.000000) scale(0.100000,-0.100000)"
fill="#000000" stroke="none">
<path d="M1680 8003 c-52 -30 -167 -97 -255 -148 -88 -50 -261 -150 -385 -222
-124 -71 -242 -139 -263 -150 l-38 -19 0 -610 1 -609 22 -15 c20 -14 109 -64
203 -114 22 -11 42 -23 45 -26 3 -3 16 -11 29 -18 13 -8 39 -23 59 -33 19 -11
36 -18 39 -15 3 2 -10 13 -29 22 -38 21 -31 17 -190 114 -67 41 -130 78 -140
82 -17 7 -18 40 -18 588 0 362 4 580 10 580 5 0 32 -13 60 -30 28 -16 55 -30
60 -30 6 0 10 -4 10 -10 0 -5 4 -10 9 -10 16 0 836 -471 849 -488 9 -12 12
-146 12 -589 0 -514 -2 -573 -16 -573 -13 0 -79 39 -420 247 -73 44 -114 54
-114 28 0 -8 -41 -38 -91 -67 -50 -29 -159 -93 -241 -143 l-149 -90 0 -605 1
-605 21 -15 c20 -14 83 -48 259 -141 36 -19 68 -38 71 -43 4 -5 13 -6 20 -4 8
3 -10 17 -41 34 -30 15 -63 33 -72 39 -48 29 -187 110 -210 122 l-28 14 0 584
c0 552 1 584 18 578 9 -3 22 -9 27 -13 11 -9 64 -39 145 -83 30 -16 60 -33 65
-37 9 -7 29 -19 135 -78 25 -14 62 -36 82 -49 21 -12 40 -23 43 -23 2 0 34
-18 70 -40 36 -22 68 -40 70 -40 3 0 22 -11 43 -23 20 -13 60 -36 87 -52 146
-81 206 -119 215 -135 6 -12 10 -231 10 -580 0 -491 -2 -561 -15 -566 -8 -4
-21 -2 -28 4 -12 10 -238 140 -337 195 -30 16 -66 38 -80 47 -38 26 -67 33
-77 17 -4 -7 -91 -59 -193 -114 -102 -56 -211 -116 -243 -135 l-58 -33 0 -605
1 -605 21 -15 c29 -20 126 -76 169 -97 19 -9 37 -19 40 -22 3 -4 23 -15 45
-27 64 -33 90 -48 96 -58 4 -5 13 -6 20 -4 9 3 6 9 -11 18 -14 7 -100 57 -192
112 l-168 100 0 584 0 585 23 -12 c12 -6 51 -28 87 -49 36 -20 85 -49 110 -63
395 -222 759 -433 773 -449 16 -19 17 -62 17 -599 0 -502 -2 -579 -15 -579
-13 0 -115 58 -388 221 -54 33 -101 59 -104 59 -4 0 -14 -6 -22 -14 -13 -12
-338 -196 -345 -196 -2 0 -37 -20 -80 -44 l-77 -44 1 -607 c0 -335 1 -609 2
-610 4 -4 406 -234 458 -263 25 -13 50 -28 55 -32 6 -4 30 -19 55 -32 61 -34
105 -59 168 -97 29 -17 57 -31 62 -31 4 0 10 -3 12 -7 3 -8 69 -46 115 -68 13
-5 23 -13 23 -17 0 -5 8 -8 17 -8 21 0 9 12 -37 37 -19 10 -46 26 -60 34 -41
26 -351 210 -400 237 -24 14 -84 49 -133 78 -49 30 -92 54 -94 54 -2 0 -24 14
-48 30 -24 17 -46 30 -48 30 -3 0 -31 16 -63 35 l-59 36 -5 575 c-3 317 -3
580 0 585 3 4 26 -3 50 -18 25 -14 60 -34 78 -44 30 -18 52 -30 139 -80 21
-12 58 -33 83 -47 25 -14 62 -36 82 -49 21 -12 40 -23 43 -23 2 0 34 -18 70
-40 36 -22 67 -40 70 -40 3 0 34 -18 70 -40 36 -22 67 -40 69 -40 12 0 233
-134 244 -148 20 -25 7 -1152 -14 -1168 -21 -17 31 -43 54 -27 9 7 51 32 92
56 41 24 237 138 435 254 198 116 389 226 423 246 l63 34 2 609 1 608 -29 9
c-17 6 -42 19 -58 29 -15 11 -33 18 -40 15 -6 -2 9 -15 36 -28 26 -12 47 -26
47 -30 0 -6 -56 -41 -275 -169 -44 -26 -129 -76 -190 -112 -60 -35 -204 -118
-319 -183 -203 -116 -209 -119 -235 -104 -14 9 -37 22 -51 30 -14 8 -27 16
-30 19 -3 3 -18 12 -35 20 -16 8 -32 17 -35 20 -10 10 -65 41 -82 47 -10 3
-18 9 -18 14 0 5 -7 9 -15 9 -8 0 -15 4 -15 8 0 5 -16 14 -35 22 -19 8 -35 17
-35 21 0 4 -8 9 -17 12 -18 6 -73 37 -83 47 -10 10 -65 41 -82 47 -10 3 -18 9
-18 13 0 4 -10 10 -23 14 -15 4 -18 9 -10 14 6 4 12 30 12 57 0 28 0 68 -1 90
0 164 2 205 11 205 12 0 15 56 4 63 -5 2 -2 2 5 1 6 -2 12 2 12 9 0 7 10 21
21 31 21 17 23 17 88 -15 36 -19 68 -36 71 -39 5 -5 35 -21 165 -90 86 -45
118 -63 125 -71 3 -3 20 -12 38 -20 17 -8 32 -17 32 -21 0 -11 47 -10 52 0 2
5 95 62 208 127 113 65 217 127 232 137 14 10 35 18 46 18 11 0 22 8 24 18 3
9 23 26 44 38 47 25 90 50 164 94 30 18 69 41 85 50 17 10 70 41 120 70 76 44
93 50 109 40 10 -7 33 -20 50 -30 124 -71 422 -255 428 -264 9 -13 8 -693 -1
-990 -4 -152 -3 -210 5 -213 10 -4 929 513 1036 582 l36 24 -5 280 c-4 161 -2
286 3 293 5 7 8 149 6 320 l-3 308 -51 26 c-29 15 -68 36 -88 49 -19 12 -115
68 -213 125 -97 56 -181 109 -186 117 -5 11 -10 12 -15 5 -7 -11 -44 6 -106
47 -14 9 -38 23 -55 31 -16 8 -41 22 -55 31 -14 9 -42 26 -62 38 -66 37 -145
82 -205 117 -28 17 -33 17 -50 3 -10 -8 -31 -21 -48 -29 -16 -8 -48 -26 -70
-40 -22 -14 -53 -32 -70 -40 -16 -8 -32 -17 -35 -20 -3 -3 -17 -11 -32 -19
-16 -8 -28 -18 -28 -23 0 -7 46 16 230 113 25 13 47 27 48 32 5 9 52 9 52 0 0
-5 10 -13 23 -19 42 -21 112 -59 117 -64 3 -3 24 -15 48 -27 23 -13 61 -33 85
-45 23 -13 44 -25 47 -28 3 -3 23 -14 45 -26 58 -31 118 -65 130 -74 6 -5 35
-22 65 -38 30 -16 72 -39 93 -50 20 -12 53 -31 72 -42 19 -11 51 -29 70 -40
19 -11 52 -30 73 -42 20 -11 54 -30 75 -41 40 -22 47 -41 20 -50 -10 -4 -38
-18 -63 -33 -25 -15 -58 -35 -75 -44 -16 -10 -86 -50 -155 -90 -69 -40 -150
-86 -180 -103 -30 -16 -67 -38 -82 -49 -14 -10 -29 -18 -32 -18 -3 0 -35 -18
-71 -40 -36 -22 -67 -40 -70 -40 -3 0 -34 -18 -70 -40 -36 -22 -67 -40 -70
-40 -2 0 -27 -14 -55 -30 -59 -35 -73 -36 -108 -11 -39 27 -381 231 -388 231
-3 0 -21 12 -40 26 l-35 27 1 294 c1 162 -1 297 -5 301 -3 3 -5 139 -5 301 l2
294 -64 31 c-34 16 -65 32 -68 35 -3 4 -18 13 -35 21 -16 8 -32 17 -35 20 -12
12 -61 33 -66 28 -3 -3 7 -12 23 -20 47 -25 107 -59 135 -79 14 -11 30 -19 36
-19 5 0 15 -7 22 -15 9 -11 9 -15 1 -15 -7 0 -39 -18 -71 -40 -32 -22 -61 -40
-64 -40 -2 0 -44 -24 -93 -54 -130 -79 -607 -357 -690 -401 l-71 -39 -56 37
c-31 20 -58 37 -62 37 -3 0 -25 13 -49 30 -24 17 -46 30 -50 30 -4 0 -25 13
-48 28 -23 15 -55 34 -72 42 -16 8 -39 23 -49 33 -11 9 -26 17 -33 17 -7 0
-13 5 -13 10 0 6 -7 10 -15 10 -9 0 -25 9 -37 20 -12 11 -28 20 -35 20 -7 0
-13 5 -13 10 0 6 -9 10 -20 10 -11 0 -20 5 -20 10 0 6 -6 10 -12 10 -10 0 -12
33 -10 142 2 79 7 145 11 148 9 6 25 61 22 74 -1 5 3 23 10 39 11 26 10 31 -6
43 -17 13 -17 14 1 20 10 4 22 12 25 17 7 10 69 -12 69 -25 0 -5 9 -8 20 -8
11 0 20 -4 20 -10 0 -5 9 -10 20 -10 11 0 20 -3 20 -7 0 -5 10 -13 23 -19 44
-22 173 -91 212 -114 125 -73 175 -93 175 -71 0 5 8 11 18 14 9 4 37 18 62 33
25 15 59 35 75 44 17 9 54 31 83 49 29 17 55 31 57 31 2 0 42 22 88 49 47 27
95 52 106 56 12 3 21 13 21 21 0 8 8 18 18 21 9 4 54 29 100 55 46 26 85 48
87 48 2 0 26 13 53 29 27 16 89 50 138 76 49 26 92 51 96 54 4 3 8 145 9 316
l1 309 -79 46 c-224 129 -413 243 -428 260 -16 18 -17 60 -10 594 6 460 10
576 21 576 7 0 49 -22 94 -50 45 -27 83 -50 85 -50 2 0 43 -24 92 -54 76 -47
286 -169 623 -364 52 -30 99 -60 103 -66 5 -6 6 -277 2 -603 -6 -595 -5 -622
28 -595 31 26 474 272 490 272 16 0 17 21 17 300 0 199 3 300 10 300 6 0 70
-35 143 -77 73 -42 161 -93 197 -113 36 -20 146 -83 245 -140 325 -185 387
-220 395 -220 5 0 18 -12 29 -26 20 -26 21 -38 21 -308 -1 -205 -4 -285 -13
-296 -10 -14 -168 -104 -418 -239 -42 -22 -83 -41 -92 -41 -8 0 -17 -6 -20
-14 -3 -8 -23 -23 -44 -32 -21 -10 -69 -36 -108 -57 -94 -52 -249 -136 -308
-167 l-49 -25 2 -210 c0 -115 3 -211 5 -214 3 -2 5 83 5 191 0 107 3 197 6
200 3 3 65 -28 137 -69 73 -41 157 -89 187 -105 30 -17 60 -34 65 -38 6 -4 37
-22 70 -40 33 -18 128 -71 210 -118 83 -46 188 -105 234 -131 46 -25 95 -56
109 -69 l25 -24 -6 -569 c-3 -380 -9 -574 -16 -583 -7 -9 -7 -16 1 -24 14 -14
45 -16 50 -4 2 5 188 115 413 246 226 131 452 264 504 295 l94 56 -2 292 c-1
160 2 294 6 296 4 3 6 143 3 311 l-5 306 -155 86 c-85 47 -184 102 -220 122
-36 19 -82 46 -102 59 l-38 23 0 290 c0 270 1 290 18 290 9 0 28 -9 42 -20 14
-11 29 -20 33 -20 5 0 27 -13 50 -29 23 -15 47 -30 52 -32 6 -2 67 -37 135
-78 69 -41 190 -112 270 -159 80 -46 170 -99 200 -117 54 -32 132 -76 179
-101 13 -7 28 -19 32 -26 10 -15 10 -580 0 -952 -4 -174 -3 -250 5 -253 6 -2
170 89 365 203 195 113 404 235 464 269 61 35 135 79 165 97 l55 34 0 604 0
604 -125 71 c-69 40 -197 114 -285 165 -88 51 -227 132 -310 180 -82 48 -188
109 -235 137 l-86 50 -163 -99 c-90 -54 -168 -98 -172 -98 -5 0 -9 -4 -9 -9 0
-5 -8 -11 -17 -14 -18 -6 -73 -37 -83 -47 -15 -15 -52 -30 -62 -24 -7 5 -9 95
-7 292 3 245 2 286 -11 293 -8 5 -49 28 -90 52 -41 24 -120 70 -175 102 -55
32 -113 65 -130 75 -92 54 -290 168 -430 250 -88 50 -164 96 -169 101 -18 17
-44 9 -111 -32 -37 -22 -83 -49 -101 -60 -19 -10 -50 -28 -69 -39 -19 -11 -52
-30 -72 -41 -21 -12 -50 -30 -65 -40 -14 -11 -31 -19 -37 -19 -6 0 -11 -3 -11
-8 0 -12 -59 -34 -71 -26 -9 5 -10 83 -4 300 4 178 3 294 -2 294 -5 0 -99 51
-209 113 -109 63 -219 125 -244 139 -25 14 -169 97 -320 183 -151 87 -280 158
-285 158 -6 0 -37 -16 -68 -36 -32 -20 -60 -37 -63 -37 -3 0 -25 -13 -49 -30
-24 -16 -46 -30 -50 -30 -4 0 -26 -13 -50 -30 -24 -16 -46 -30 -50 -30 -4 0
-26 -13 -50 -30 -24 -16 -47 -30 -50 -30 -4 0 -20 -9 -36 -21 -16 -11 -34 -17
-40 -13 -9 5 -11 83 -6 296 l5 289 -24 9 c-14 6 -68 35 -122 66 -53 31 -150
88 -214 125 -65 38 -171 100 -235 137 -65 38 -183 107 -263 154 -80 47 -154
90 -165 95 -17 9 -36 2 -115 -44z m370 -267 c0 -9 8 -12 25 -8 14 2 25 9 25
14 0 5 7 3 15 -6 8 -8 15 -19 15 -24 0 -5 11 -7 25 -5 14 3 31 -1 39 -10 9 -8
24 -13 34 -10 10 2 24 -3 31 -11 10 -11 18 -13 31 -6 21 11 36 -2 24 -22 -4
-7 -3 -8 5 -4 12 8 71 -14 71 -26 0 -5 8 -8 18 -8 9 0 32 -9 50 -20 20 -12 43
-19 55 -15 12 2 16 2 10 -1 -23 -10 -14 -21 12 -16 19 3 24 1 20 -10 -4 -10 6
-21 30 -32 20 -10 39 -24 42 -32 3 -8 13 -14 23 -14 15 0 50 -56 39 -63 -2 -1
-17 -10 -34 -20 -16 -10 -38 -21 -47 -24 -10 -3 -18 -9 -18 -14 0 -5 -5 -9
-11 -9 -6 0 -30 -13 -54 -30 -24 -16 -46 -30 -50 -30 -4 0 -26 -13 -50 -30
-24 -16 -46 -30 -50 -30 -4 0 -26 -13 -50 -30 -24 -16 -46 -30 -48 -30 -3 0
-35 -18 -72 -41 -65 -39 -88 -53 -172 -100 -21 -12 -42 -25 -48 -29 -12 -8
-110 -63 -174 -97 l-44 -23 -31 21 c-17 11 -39 23 -48 26 -10 3 -18 9 -18 14
0 5 -5 9 -11 9 -6 0 -30 14 -54 30 -24 17 -46 30 -50 30 -4 0 -26 14 -50 30
-24 17 -46 30 -50 30 -4 0 -26 14 -50 30 -24 17 -48 30 -54 30 -6 0 -11 4 -11
9 0 5 -13 14 -30 21 -16 7 -30 19 -30 27 0 8 5 11 10 8 6 -4 10 8 10 29 0 20
5 36 10 36 6 0 10 18 10 40 0 27 4 40 14 40 9 0 12 8 9 24 -4 17 3 33 21 51
14 14 29 38 32 52 8 32 47 73 69 73 8 0 15 7 15 16 0 20 24 44 44 44 9 0 16 5
16 11 0 6 8 9 19 6 14 -3 22 4 32 29 10 27 18 34 41 34 15 0 28 5 28 11 0 6
12 10 28 9 46 -3 52 -1 52 21 0 19 5 20 121 18 78 -1 125 3 132 10 16 16 57
14 57 -3z m680 -300 c0 -11 -19 -15 -25 -6 -3 5 1 10 9 10 9 0 16 -2 16 -4z
m537 -376 c3 -11 10 -17 15 -14 10 7 94 -32 116 -53 10 -9 19 -10 32 -3 20 11
36 -2 26 -19 -4 -5 2 -7 12 -4 10 2 24 -2 31 -10 6 -8 21 -13 31 -10 14 4 20
0 20 -10 0 -10 6 -13 18 -10 10 2 24 -2 31 -10 6 -8 21 -13 31 -10 14 4 20 0
20 -10 0 -10 6 -13 20 -10 14 4 20 0 20 -11 0 -10 5 -14 10 -11 12 7 70 -16
70 -27 0 -13 38 -9 43 5 2 7 8 8 13 3 5 -5 4 -11 -3 -13 -28 -10 -12 -24 20
-18 26 5 29 4 14 -5 -9 -6 -15 -16 -11 -21 4 -6 14 -3 25 7 15 13 22 15 31 6
9 -9 9 -12 0 -12 -17 0 -15 -17 4 -24 8 -3 13 -2 10 3 -3 5 1 12 9 15 9 3 18
-1 21 -9 4 -8 12 -15 20 -15 8 0 13 -6 12 -12 -2 -7 5 -12 15 -10 9 2 17 -2
17 -9 0 -6 7 -8 15 -5 9 3 18 -1 22 -10 3 -8 12 -13 19 -10 7 3 22 -6 33 -19
10 -14 26 -25 35 -25 9 0 16 -5 16 -11 0 -6 9 -8 20 -4 11 4 20 2 20 -4 0 -6
-4 -11 -10 -11 -5 0 -10 -5 -10 -11 0 -6 12 -8 33 -5 17 3 26 3 19 0 -15 -7
-6 -24 11 -20 7 1 9 1 5 -1 -22 -12 -5 -25 25 -19 23 4 28 3 17 -4 -12 -8 -10
-10 10 -10 l25 0 -25 -20 c-14 -10 -36 -25 -50 -32 -14 -7 -27 -15 -30 -18 -3
-3 -15 -11 -27 -17 -13 -7 -33 -19 -45 -25 -13 -7 -25 -15 -28 -18 -3 -3 -18
-12 -35 -20 -16 -8 -49 -27 -72 -42 -23 -15 -44 -28 -46 -28 -3 0 -35 -18 -72
-41 -37 -22 -83 -49 -101 -60 -19 -10 -50 -28 -69 -39 -19 -11 -51 -29 -70
-40 -19 -11 -51 -29 -70 -40 -56 -32 -107 -60 -150 -83 -22 -12 -42 -24 -45
-27 -16 -16 -62 -33 -68 -25 -4 6 -20 17 -37 25 -16 8 -41 22 -55 31 -14 9
-41 26 -61 37 -76 42 -84 47 -89 52 -3 3 -18 12 -35 20 -16 8 -41 22 -55 31
-14 9 -41 26 -61 37 -76 42 -84 47 -89 52 -3 3 -18 12 -35 20 -16 8 -48 26
-70 40 -22 14 -53 32 -70 40 -16 8 -49 27 -72 42 -23 15 -44 28 -47 28 -4 0
-35 18 -71 39 -36 22 -73 42 -83 46 -11 3 -27 13 -35 23 -15 16 -9 22 101 86
64 38 153 90 197 116 87 51 152 88 230 130 28 15 68 37 90 50 49 28 142 79
172 94 13 6 23 14 23 19 0 4 9 7 20 7 11 0 20 5 20 11 0 6 9 9 20 6 11 -3 20
-1 20 4 0 18 22 9 27 -11z m1567 -896 c-5 -20 -4 -25 5 -19 12 7 133 -47 158
-71 7 -7 22 -10 33 -7 14 4 20 0 20 -10 0 -10 6 -13 20 -10 11 3 20 0 20 -6 0
-6 9 -11 20 -11 11 0 19 -5 18 -12 -2 -8 8 -11 30 -9 23 2 32 -2 32 -13 0 -10
6 -13 15 -9 9 3 24 -2 33 -10 12 -11 22 -13 32 -7 8 5 22 9 30 9 10 0 11 -2 3
-6 -24 -9 -13 -23 11 -13 27 10 56 -13 56 -45 0 -15 2 -15 16 -4 13 10 17 10
24 0 4 -8 12 -11 18 -7 6 3 14 1 19 -6 4 -7 29 -23 56 -36 26 -13 47 -28 47
-33 0 -5 7 -9 16 -7 10 2 19 -3 22 -11 3 -8 0 -11 -7 -7 -19 12 -12 0 11 -20
19 -15 20 -16 9 -1 -8 11 -9 17 -3 17 18 0 92 -41 92 -51 0 -5 8 -9 18 -9 24
0 42 -19 35 -36 -6 -17 9 -18 25 -2 9 9 13 7 18 -5 3 -9 16 -17 28 -17 15 0
17 -3 8 -9 -10 -6 -9 -11 4 -22 12 -9 15 -10 10 -1 -5 8 0 12 13 12 12 0 21
-3 21 -6 0 -11 -29 -34 -44 -34 -9 0 -16 -4 -16 -10 0 -5 -6 -10 -13 -10 -7 0
-22 -8 -33 -17 -19 -17 -39 -30 -89 -57 -11 -6 -22 -13 -25 -16 -3 -3 -16 -11
-29 -18 -59 -34 -91 -52 -155 -92 -38 -23 -84 -50 -102 -61 -81 -46 -105 -59
-202 -118 -56 -33 -104 -61 -106 -61 -2 0 -35 -19 -72 -41 -77 -47 -100 -50
-142 -20 -17 11 -35 21 -41 21 -6 0 -11 3 -11 8 0 4 -15 13 -32 21 -18 8 -51
26 -73 40 -22 15 -53 33 -70 41 -16 8 -48 26 -70 40 -22 14 -53 32 -70 40 -16
8 -42 22 -57 32 -14 10 -50 31 -80 46 -67 36 -102 56 -108 62 -3 3 -18 12 -35
20 -16 8 -52 28 -80 44 -27 16 -84 47 -125 69 -41 22 -76 44 -78 49 -2 4 -11
8 -20 8 -14 0 -14 2 -2 14 8 8 32 24 53 35 20 12 53 30 72 41 19 11 51 29 70
40 19 11 52 30 73 41 39 23 89 51 170 95 26 15 58 34 72 43 14 9 48 28 75 41
28 14 52 27 55 30 3 3 28 16 55 30 28 14 52 27 55 30 3 3 43 25 90 49 47 23
89 47 95 52 14 14 16 11 9 -17z m-3519 -264 c31 -16 69 -38 83 -48 15 -10 41
-24 57 -32 17 -8 32 -17 35 -20 3 -3 16 -11 29 -18 28 -17 79 -45 124 -70 17
-11 55 -33 83 -51 l51 -31 134 81 c74 45 150 90 169 101 19 11 47 29 62 39 14
11 29 19 33 19 3 0 26 14 51 30 l44 31 0 -283 c0 -283 0 -283 -22 -298 -65
-40 -281 -170 -285 -170 -2 0 -24 -13 -48 -30 -24 -16 -47 -30 -50 -30 -4 0
-20 -10 -37 -21 -40 -29 -68 -27 -121 10 -25 17 -48 31 -52 31 -4 0 -26 14
-50 30 -24 17 -48 30 -54 30 -6 0 -11 4 -11 9 0 5 -8 11 -17 14 -18 6 -73 37
-83 47 -10 10 -65 41 -82 47 -10 3 -18 9 -18 14 0 5 -7 9 -15 9 -9 0 -25 9
-37 20 -12 11 -28 20 -35 20 -7 0 -13 4 -13 9 0 5 -9 11 -19 14 -13 3 -18 11
-15 23 5 17 10 181 12 372 1 57 4 72 16 72 8 0 18 5 22 12 4 6 3 9 -2 6 -5 -3
-18 -2 -29 3 -15 6 -16 8 -4 8 9 1 19 8 23 16 7 19 5 20 71 -15z m-118 -466
c-3 -3 -12 -4 -19 -1 -8 3 -5 6 6 6 11 1 17 -2 13 -5z m5193 -175 c0 -17 3
-18 20 -9 16 9 22 8 26 -5 3 -8 12 -15 19 -15 7 0 18 -7 25 -15 7 -8 16 -12
21 -9 5 3 9 0 9 -6 0 -6 8 -10 18 -9 31 3 42 -1 42 -15 0 -9 7 -12 19 -9 13 3
20 -2 24 -19 6 -22 7 -22 21 -3 14 19 15 19 21 3 4 -10 13 -18 21 -18 8 0 14
-4 14 -10 0 -5 9 -10 20 -10 11 0 20 -4 20 -10 0 -5 9 -10 20 -10 11 0 20 -4
20 -10 0 -5 7 -10 16 -10 8 0 22 -7 30 -15 8 -8 21 -12 29 -9 8 3 24 -4 36
-15 13 -12 29 -21 36 -21 7 0 13 -4 13 -10 0 -5 9 -10 20 -10 11 0 20 -4 20
-10 0 -5 9 -10 20 -10 11 0 25 -9 32 -20 7 -11 21 -20 30 -20 10 0 23 -9 30
-20 7 -11 19 -20 27 -20 14 0 51 -37 51 -52 0 -4 5 -8 11 -8 6 0 17 -6 25 -14
8 -8 23 -12 35 -9 19 5 21 3 17 -15 -4 -12 -2 -22 4 -22 15 0 38 -27 38 -44 0
-12 7 -14 32 -9 21 4 29 3 24 -5 -4 -6 -13 -9 -21 -5 -9 3 -15 -1 -15 -11 0
-9 -6 -16 -13 -16 -7 0 -22 -8 -33 -17 -10 -10 -32 -25 -49 -33 -16 -8 -49
-27 -72 -42 -23 -15 -44 -28 -48 -28 -4 0 -26 -13 -50 -30 -24 -16 -48 -30
-54 -30 -6 0 -11 -4 -11 -9 0 -5 -8 -11 -17 -14 -18 -6 -73 -37 -83 -47 -3 -3
-16 -11 -29 -18 -63 -36 -90 -52 -141 -82 -30 -18 -68 -41 -85 -50 -16 -9 -50
-29 -75 -44 -25 -14 -59 -34 -77 -43 l-31 -16 -99 59 c-54 32 -111 67 -128 77
-16 10 -38 20 -47 23 -10 4 -18 10 -18 15 0 5 -5 9 -10 9 -6 0 -40 18 -76 40
-36 22 -68 40 -70 40 -2 0 -27 14 -56 31 -56 34 -95 56 -155 90 -21 12 -42 24
-48 29 -5 4 -39 23 -75 42 -36 20 -81 45 -100 57 -19 11 -52 30 -72 41 -21 11
-38 24 -38 28 0 5 15 16 33 25 17 9 59 32 92 50 33 19 87 49 120 67 33 18 65
36 70 41 6 4 46 26 90 50 44 23 85 48 90 55 6 7 35 25 65 41 30 15 57 30 60
33 3 3 19 12 35 20 17 8 32 17 35 20 4 5 97 54 157 84 13 6 23 14 23 19 0 4 9
7 19 7 11 0 23 5 26 10 9 15 25 2 25 -21z m-1290 -944 c41 -23 95 -53 120 -67
25 -14 72 -40 105 -58 33 -18 65 -36 70 -40 6 -4 30 -19 55 -32 25 -14 63 -35
85 -48 22 -12 58 -32 80 -43 22 -12 42 -24 45 -27 3 -3 23 -14 45 -26 22 -11
58 -31 80 -44 22 -13 49 -28 60 -34 48 -26 48 -27 11 -52 -19 -13 -37 -24 -39
-24 -3 0 -35 -18 -72 -41 -37 -22 -82 -49 -99 -59 -17 -9 -121 -70 -231 -135
-110 -64 -218 -127 -240 -140 -22 -12 -92 -52 -155 -89 -63 -36 -119 -66 -123
-66 -5 0 -36 16 -70 36 -58 34 -91 53 -148 86 -13 7 -26 15 -29 18 -3 3 -18
12 -35 20 -16 8 -48 26 -70 40 -22 14 -53 32 -70 40 -16 8 -32 17 -35 20 -6 6
-43 27 -95 54 -22 12 -46 27 -53 33 -7 7 -30 20 -50 30 -20 9 -39 19 -42 22
-9 10 -64 42 -82 48 -10 3 -18 9 -18 14 0 5 -9 9 -20 9 -11 0 -20 5 -20 10 0
6 -6 10 -13 10 -7 0 -23 9 -35 20 -12 11 -28 20 -37 20 -8 0 -15 7 -15 16 0
10 -6 14 -15 11 -8 -4 -17 -1 -21 5 -5 8 3 9 24 5 19 -4 32 -2 32 3 0 6 11 10
25 10 17 0 28 7 34 23 12 31 5 34 -19 7 -11 -13 -20 -18 -20 -11 0 8 -8 10
-22 6 -22 -6 -22 -6 -4 9 11 9 25 16 32 16 6 0 14 7 18 15 3 8 12 15 21 15 8
0 15 5 15 10 0 6 9 10 20 10 11 0 20 4 20 9 0 5 8 11 18 14 23 8 76 40 80 50
2 4 12 7 23 7 10 0 19 3 19 8 0 4 17 15 38 24 20 10 51 25 67 34 17 9 38 21
48 26 27 13 62 33 67 38 3 3 23 14 45 26 52 27 89 48 95 54 3 3 23 14 45 26
22 11 57 31 78 42 20 12 52 30 70 41 17 10 47 27 66 39 l35 21 65 -36 c36 -20
100 -55 141 -78z"/>
<path d="M1434 7488 l-19 -23 23 19 c21 18 27 26 19 26 -2 0 -12 -10 -23 -22z"/>
<path d="M1366 7384 c-5 -14 -4 -15 9 -4 17 14 19 20 6 20 -5 0 -12 -7 -15
-16z"/>
<path d="M1158 6003 c7 -3 16 -2 19 1 4 3 -2 6 -13 5 -11 0 -14 -3 -6 -6z"/>
<path d="M3842 4703 c-1 -145 1 -263 6 -263 4 0 6 89 4 197 -4 321 -8 346 -10
66z"/>
<path d="M3878 4423 c7 -3 16 -2 19 1 4 3 -2 6 -13 5 -11 0 -14 -3 -6 -6z"/>
<path d="M3918 4403 c7 -3 16 -2 19 1 4 3 -2 6 -13 5 -11 0 -14 -3 -6 -6z"/>
<path d="M3958 4383 c7 -3 16 -2 19 1 4 3 -2 6 -13 5 -11 0 -14 -3 -6 -6z"/>
<path d="M4028 4343 c7 -3 16 -2 19 1 4 3 -2 6 -13 5 -11 0 -14 -3 -6 -6z"/>
<path d="M4138 4283 c7 -3 16 -2 19 1 4 3 -2 6 -13 5 -11 0 -14 -3 -6 -6z"/>
<path d="M4178 4263 c7 -3 16 -2 19 1 4 3 -2 6 -13 5 -11 0 -14 -3 -6 -6z"/>
<path d="M1138 4223 c7 -3 16 -2 19 1 4 3 -2 6 -13 5 -11 0 -14 -3 -6 -6z"/>
<path d="M2400 4086 c0 -2 7 -6 15 -10 8 -3 15 -1 15 4 0 6 -7 10 -15 10 -8 0
-15 -2 -15 -4z"/>
<path d="M2515 4020 c3 -5 8 -10 11 -10 2 0 4 5 4 10 0 6 -5 10 -11 10 -5 0
-7 -4 -4 -10z"/>
<path d="M1190 3780 c0 -57 3 -100 6 -97 7 7 5 189 -2 196 -2 2 -4 -42 -4 -99z"/>
<path d="M2980 3360 c0 -5 4 -10 9 -10 6 0 13 5 16 10 3 6 -1 10 -9 10 -9 0
-16 -4 -16 -10z"/>
<path d="M2940 3340 c0 -5 4 -10 9 -10 6 0 13 5 16 10 3 6 -1 10 -9 10 -9 0
-16 -4 -16 -10z"/>
<path d="M2328 2323 c7 -3 16 -2 19 1 4 3 -2 6 -13 5 -11 0 -14 -3 -6 -6z"/>
<path d="M2368 2303 c7 -3 16 -2 19 1 4 3 -2 6 -13 5 -11 0 -14 -3 -6 -6z"/>
<path d="M2508 2223 c7 -3 16 -2 19 1 4 3 -2 6 -13 5 -11 0 -14 -3 -6 -6z"/>
<path d="M2558 2194 c12 -8 28 -13 35 -11 7 3 5 6 -5 6 -10 1 -18 6 -18 11 0
6 -8 10 -17 10 -14 0 -13 -3 5 -16z"/>
<path d="M1190 2164 c0 -14 4 -23 9 -20 5 3 7 15 4 26 -7 28 -13 25 -13 -6z"/>
<path d="M2648 2143 c7 -3 16 -2 19 1 4 3 -2 6 -13 5 -11 0 -14 -3 -6 -6z"/>
</g>
</svg>
