<?xml version="1.0" standalone="no"?>
<!DOCTYPE svg PUBLIC "-//W3C//DTD SVG 20010904//EN"
 "http://www.w3.org/TR/2001/REC-SVG-20010904/DTD/svg10.dtd">
<svg version="1.0" xmlns="http://www.w3.org/2000/svg"
 width="800.000000pt" height="884.000000pt" viewBox="0 0 800.000000 884.000000"
 preserveAspectRatio="xMidYMid meet">

<g transform="translate(0.000000,884.000000) scale(0.100000,-0.100000)"
fill="#000000" stroke="none">
<path d="M3580 8789 c-872 -25 -1700 -133 -2490 -325 -294 -71 -489 -127 -803
-231 l-258 -84 4 -1557 c3 -1389 5 -1573 21 -1707 52 -460 141 -820 302 -1224
47 -116 189 -419 236 -499 l25 -42 17 85 c20 103 53 190 151 395 40 85 83 183
94 217 50 155 51 324 6 577 -39 221 -48 326 -35 414 45 296 342 864 706 1347
156 208 171 217 230 135 26 -36 42 -50 60 -50 44 0 49 33 19 150 -40 157 -55
294 -55 505 0 314 20 365 220 566 106 107 149 143 199 168 116 56 203 38 313
-66 68 -65 208 -224 312 -355 l69 -87 261 6 c372 8 766 -20 1156 -82 258 -42
414 -83 587 -156 138 -58 162 -52 116 30 l-28 49 20 22 c29 33 323 174 448
215 117 39 248 57 312 41 75 -17 166 -145 225 -316 65 -187 18 -466 -112 -667
l-45 -69 49 -54 c145 -161 203 -252 214 -333 8 -55 -30 -217 -57 -246 -40 -43
-89 -13 -89 55 0 68 -18 153 -44 211 -31 65 -120 155 -197 198 -50 28 -62 30
-154 30 -87 0 -107 -4 -157 -27 -32 -15 -80 -48 -107 -73 -64 -60 -94 -121
-95 -194 0 -52 7 -70 97 -245 116 -224 125 -238 173 -261 30 -14 52 -16 113
-11 83 7 141 22 141 37 0 5 0 12 0 17 0 4 -22 8 -48 8 -103 3 -172 74 -263
271 l-38 83 32 31 c86 83 225 105 328 51 105 -55 144 -170 100 -300 -12 -35
-19 -67 -16 -72 3 -4 29 -14 57 -20 72 -17 122 -44 146 -77 27 -38 99 -239
117 -324 8 -39 15 -121 15 -182 0 -98 -5 -131 -40 -267 -22 -85 -48 -191 -57
-235 l-16 -81 27 -68 c39 -97 56 -186 56 -296 0 -200 -42 -303 -220 -539 -105
-139 -130 -167 -168 -183 -44 -20 -44 -20 -136 2 -198 46 -215 62 -291 257
-48 124 -85 133 -158 36 -101 -136 -166 -190 -265 -219 -60 -19 -472 -111
-577 -130 -202 -36 -367 2 -501 114 -72 59 -204 221 -263 319 -55 92 -71 173
-80 384 -7 187 -19 229 -60 229 -37 0 -53 -43 -76 -203 -20 -138 -48 -227 -79
-257 -22 -20 -32 -22 -74 -17 -63 7 -701 220 -765 254 -103 57 -108 64 -258
400 -25 56 -31 63 -57 63 -21 0 -32 -7 -40 -25 -6 -13 -21 -111 -32 -217 -33
-305 -68 -412 -191 -580 -245 -331 -271 -372 -311 -488 -34 -98 -48 -232 -48
-460 0 -389 41 -536 213 -766 191 -256 701 -683 1322 -1106 292 -199 921 -595
931 -585 2 2 9 111 14 243 15 354 48 483 173 669 51 76 76 106 200 235 240
250 425 435 461 462 70 51 116 32 116 -47 0 -96 75 -313 144 -418 51 -76 126
-143 199 -177 113 -53 104 -56 267 71 783 608 1384 1266 1765 1929 365 636
559 1276 605 1995 6 96 10 749 10 1622 l0 1461 -242 81 c-1051 347 -2106 525
-3343 561 -367 10 -362 10 -755 -1z m1708 -5779 c154 -20 262 -80 262 -147 0
-76 -111 -198 -234 -258 -112 -55 -193 -67 -481 -68 -263 -1 -357 8 -472 45
-113 37 -182 125 -152 192 34 74 263 156 574 206 230 37 377 45 503 30z"/>
<path d="M2222 7379 c-59 -29 -125 -119 -183 -249 -21 -49 -24 -67 -22 -175 4
-395 188 -828 328 -775 15 6 75 56 133 113 59 56 147 128 195 161 105 70 123
93 109 135 -6 16 -53 99 -105 183 -52 84 -134 227 -182 318 -164 308 -187 331
-273 289z"/>
<path d="M5682 6932 c-84 -84 -245 -291 -261 -334 -6 -15 -8 -33 -5 -40 3 -7
44 -38 90 -68 46 -30 116 -83 155 -119 56 -51 73 -61 80 -50 49 73 98 169 123
239 25 74 30 100 30 195 1 98 -2 116 -25 165 -55 117 -82 119 -187 12z"/>
<path d="M3730 6119 c-76 -11 -167 -52 -299 -134 -142 -88 -197 -149 -278
-312 -59 -119 -67 -142 -68 -193 0 -82 18 -100 99 -100 34 1 89 7 123 14 l62
13 33 -34 c67 -70 217 -123 346 -123 80 0 112 11 112 39 0 13 -16 23 -62 37
-91 27 -169 83 -218 156 -22 33 -40 70 -40 82 0 58 104 169 207 221 54 28 66
30 168 30 98 0 116 -3 165 -26 97 -46 180 -150 180 -225 0 -43 -42 -125 -85
-167 -42 -41 -39 -62 8 -52 91 20 201 116 252 220 39 78 46 203 17 261 -41 80
-234 242 -328 275 -69 24 -287 34 -394 18z"/>
<path d="M5290 4380 c-202 -20 -297 -43 -372 -93 -37 -25 -118 -139 -118 -167
0 -30 21 -38 160 -55 216 -26 282 -46 326 -98 25 -29 26 -37 21 -102 -3 -38
-13 -90 -22 -115 -8 -24 -17 -65 -18 -90 -2 -41 0 -45 23 -49 64 -9 163 100
226 249 53 128 74 144 224 175 156 32 190 60 190 157 0 77 -20 115 -74 139
-94 41 -382 66 -566 49z"/>
</g>
</svg>
